<svg width="34" height="34" viewBox="0 0 34 34" fill="none" xmlns="http://www.w3.org/2000/svg">
<path d="M14.8 5.7C11.8177 5.7 9.4 8.11766 9.4 11.1C9.4 14.0823 11.8177 16.5 14.8 16.5C17.7823 16.5 20.2 14.0823 20.2 11.1C20.2 8.11766 17.7823 5.7 14.8 5.7ZM6.7 11.1C6.7 6.62649 10.3265 3 14.8 3C19.2735 3 22.9 6.62649 22.9 11.1C22.9 15.5735 19.2735 19.2 14.8 19.2C10.3265 19.2 6.7 15.5735 6.7 11.1ZM24.0183 5.37244C24.5457 4.84522 25.4003 4.84522 25.9275 5.37244C29.0908 8.53569 29.0908 13.6643 25.9275 16.8275C25.4003 17.3548 24.5457 17.3548 24.0183 16.8275C23.4912 16.3003 23.4912 15.4457 24.0183 14.9183C26.1272 12.8095 26.1272 9.39045 24.0183 7.28162C23.4912 6.75442 23.4912 5.89964 24.0183 5.37244ZM24.9654 22.9226C25.1461 22.1993 25.879 21.7595 26.6024 21.9404C28.3952 22.3884 29.5299 23.5347 30.1824 24.84C30.814 26.103 31 27.5121 31 28.65C31 29.3956 30.3956 30 29.65 30C28.9044 30 28.3 29.3956 28.3 28.65C28.3 27.7629 28.1485 26.8095 27.7676 26.0475C27.4076 25.3278 26.8548 24.7866 25.9476 24.5596C25.2243 24.3789 24.7845 23.646 24.9654 22.9226ZM10.075 24.6C8.37473 24.6 6.7 26.2382 6.7 28.65C6.7 29.3956 6.09558 30 5.35 30C4.60442 30 4 29.3956 4 28.65C4 25.0971 6.55618 21.9 10.075 21.9H19.525C23.0438 21.9 25.6 25.0971 25.6 28.65C25.6 29.3956 24.9956 30 24.25 30C23.5044 30 22.9 29.3956 22.9 28.65C22.9 26.2382 21.2253 24.6 19.525 24.6H10.075Z" fill="#000"/>
</svg>
