<svg width="34" height="34" viewBox="0 0 34 34" fill="none" xmlns="http://www.w3.org/2000/svg">
<path d="M12.7498 7.08333C11.9674 7.08333 11.3332 7.7176 11.3332 8.5C11.3332 9.2824 11.9674 9.91667 12.7498 9.91667C13.5322 9.91667 14.1665 9.2824 14.1665 8.5C14.1665 7.7176 13.5322 7.08333 12.7498 7.08333ZM8.74168 7.08333C9.3251 5.43265 10.8994 4.25 12.7498 4.25C14.6003 4.25 16.1746 5.43265 16.758 7.08333H26.9165C27.6989 7.08333 28.3332 7.7176 28.3332 8.5C28.3332 9.2824 27.6989 9.91667 26.9165 9.91667H16.758C16.1746 11.5674 14.6003 12.75 12.7498 12.75C10.8994 12.75 9.3251 11.5674 8.74168 9.91667H7.08317C6.30077 9.91667 5.6665 9.2824 5.6665 8.5C5.6665 7.7176 6.30077 7.08333 7.08317 7.08333H8.74168ZM21.2498 15.5833C20.4674 15.5833 19.8332 16.2176 19.8332 17C19.8332 17.7824 20.4674 18.4167 21.2498 18.4167C22.0323 18.4167 22.6665 17.7824 22.6665 17C22.6665 16.2176 22.0323 15.5833 21.2498 15.5833ZM17.2417 15.5833C17.825 13.9326 19.3994 12.75 21.2498 12.75C23.1003 12.75 24.6746 13.9326 25.258 15.5833H26.9165C27.6989 15.5833 28.3332 16.2176 28.3332 17C28.3332 17.7824 27.6989 18.4167 26.9165 18.4167H25.258C24.6746 20.0674 23.1003 21.25 21.2498 21.25C19.3994 21.25 17.825 20.0674 17.2417 18.4167H7.08317C6.30077 18.4167 5.6665 17.7824 5.6665 17C5.6665 16.2176 6.30077 15.5833 7.08317 15.5833H17.2417ZM12.7498 24.0833C11.9674 24.0833 11.3332 24.7176 11.3332 25.5C11.3332 26.2824 11.9674 26.9167 12.7498 26.9167C13.5322 26.9167 14.1665 26.2824 14.1665 25.5C14.1665 24.7176 13.5322 24.0833 12.7498 24.0833ZM8.74168 24.0833C9.3251 22.4326 10.8994 21.25 12.7498 21.25C14.6003 21.25 16.1746 22.4326 16.758 24.0833H26.9165C27.6989 24.0833 28.3332 24.7176 28.3332 25.5C28.3332 26.2824 27.6989 26.9167 26.9165 26.9167H16.758C16.1746 28.5674 14.6003 29.75 12.7498 29.75C10.8994 29.75 9.3251 28.5674 8.74168 26.9167H7.08317C6.30077 26.9167 5.6665 26.2824 5.6665 25.5C5.6665 24.7176 6.30077 24.0833 7.08317 24.0833H8.74168Z" fill="#000"/>
</svg>
