<svg width="34" height="34" viewBox="0 0 34 34" fill="none" xmlns="http://www.w3.org/2000/svg">
<path d="M16.0589 3.19109C16.5957 2.71397 17.4046 2.71397 17.9414 3.19109L30.6914 14.5244C31.2762 15.0442 31.3288 15.9397 30.809 16.5245C30.2892 17.1091 29.3937 17.1618 28.8089 16.6421L28.3335 16.2195V26.9166C28.3335 28.4814 27.065 29.7499 25.5002 29.7499H8.50018C6.93537 29.7499 5.66685 28.4814 5.66685 26.9166V16.2195L5.19136 16.6421C4.60659 17.1618 3.71115 17.1091 3.19135 16.5245C2.67155 15.9397 2.72422 15.0442 3.309 14.5244L16.0589 3.19109ZM8.50018 13.7009V26.9166H12.7502V19.8333C12.7502 19.0508 13.3845 18.4166 14.1668 18.4166H19.8335C20.6159 18.4166 21.2502 19.0508 21.2502 19.8333V26.9166H25.5002V13.7009L17.0002 6.14535L8.50018 13.7009ZM18.4168 26.9166V21.2499H15.5835V26.9166H18.4168Z" fill="black"/>
</svg>
