<svg width="34" height="34" viewBox="0 0 34 34" fill="none" xmlns="http://www.w3.org/2000/svg">
<g clip-path="url(#clip0_60_3092)">
<path d="M20.5481 1.83008H20.2457V0.82637C20.2457 0.370048 19.8757 0 19.4193 0C18.9629 0 18.5929 0.370048 18.5929 0.82637V1.83008H15.2875V0.82637C15.2875 0.370048 14.9175 0 14.4611 0C14.0047 0 13.6347 0.370048 13.6347 0.82637V1.83008H10.3292V0.82637C10.3292 0.370048 9.95928 0 9.50287 0C9.04647 0 8.6765 0.370048 8.6765 0.82637V1.83008H5.37102V0.82637C5.37102 0.370048 5.00106 0 4.54465 0C4.08825 0 3.71828 0.370048 3.71828 0.82637V1.83008H3.41583C1.59311 1.83008 0.110352 3.31292 0.110352 5.13556V30.6944C0.110352 32.5171 1.59311 33.9999 3.41583 33.9999H20.5481C22.3709 33.9999 23.8536 32.5171 23.8536 30.6944V5.13556C23.8536 3.313 22.3708 1.83008 20.5481 1.83008ZM22.2009 30.6945C22.2009 31.6058 21.4595 32.3473 20.5481 32.3473H3.41575C2.50451 32.3473 1.76301 31.6058 1.76301 30.6945V5.13556C1.76301 4.22424 2.50451 3.48282 3.41575 3.48282H3.7182V5.60568C3.7182 6.062 4.08817 6.43205 4.54457 6.43205C5.00097 6.43205 5.37094 6.062 5.37094 5.60568V3.48282H8.67642V5.60568C8.67642 6.062 9.04639 6.43205 9.50279 6.43205C9.95919 6.43205 10.3292 6.062 10.3292 5.60568V3.48282H13.6346V5.60568C13.6346 6.062 14.0046 6.43205 14.461 6.43205C14.9174 6.43205 15.2874 6.062 15.2874 5.60568V3.48282H18.5929V5.60568C18.5929 6.062 18.9628 6.43205 19.4192 6.43205C19.8756 6.43205 20.2456 6.062 20.2456 5.60568V3.48282H20.548C21.4595 3.48282 22.2008 4.22424 22.2008 5.13556V30.6945H22.2009Z" fill="#000"/>
<path d="M19.3776 12.9302H4.58614C4.12973 12.9302 3.75977 13.3002 3.75977 13.7565C3.75977 14.2129 4.12973 14.5829 4.58614 14.5829H19.3775C19.8339 14.5829 20.2039 14.2129 20.2039 13.7565C20.204 13.3001 19.834 12.9302 19.3776 12.9302Z" fill="#000"/>
<path d="M19.3776 17.8884H4.58614C4.12973 17.8884 3.75977 18.2585 3.75977 18.7148C3.75977 19.1711 4.12973 19.5412 4.58614 19.5412H19.3775C19.8339 19.5412 20.2039 19.1711 20.2039 18.7148C20.204 18.2584 19.834 17.8884 19.3776 17.8884Z" fill="#000"/>
<path d="M19.3776 22.8467H4.58614C4.12973 22.8467 3.75977 23.2166 3.75977 23.673C3.75977 24.1294 4.12973 24.4994 4.58614 24.4994H19.3775C19.8339 24.4994 20.2039 24.1294 20.2039 23.673C20.204 23.2166 19.834 22.8467 19.3776 22.8467Z" fill="#000"/>
<path d="M33.5506 3.51574C33.5214 3.22065 33.3361 2.96381 33.0653 2.84283C32.0459 2.38758 31.1651 2.17554 30.2936 2.17554C29.422 2.17554 28.5411 2.38758 27.5213 2.84275C27.2505 2.96373 27.0652 3.22056 27.0359 3.51583C26.5844 8.06466 26.5844 12.4871 27.0359 17.0358C27.0646 17.3239 27.2416 17.5755 27.502 17.6999L28.0634 29.2182C28.0662 29.2749 28.0748 29.331 28.0891 29.386L29.0391 33.0362C29.1339 33.4003 29.4626 33.6544 29.8388 33.6544H30.7478C31.1242 33.6544 31.453 33.4003 31.5476 33.0362L32.4971 29.3859C32.5115 29.331 32.52 29.2748 32.5228 29.2182L33.0846 17.6999C33.3448 17.5755 33.522 17.3241 33.5506 17.0361C34.0027 12.4908 34.0027 8.0683 33.5506 3.51574ZM28.6336 4.17039C28.927 4.05883 29.2027 3.97636 29.4669 3.92V10.0537C29.4669 10.51 29.8369 10.88 30.2932 10.88C30.7496 10.88 31.1196 10.51 31.1196 10.0537V3.91992C31.384 3.97636 31.6596 4.05892 31.9531 4.17031C32.3293 8.25283 32.3311 12.236 31.959 16.3113H28.6274C28.2561 12.2328 28.2579 8.25002 28.6336 4.17039ZM30.8761 29.0524L30.2932 31.2932L29.7101 29.0524L29.1695 17.9639H31.4168L30.8761 29.0524Z" fill="#000"/>
</g>
<defs>
<clipPath id="clip0_60_3092">
<rect width="34" height="34" fill="white"/>
</clipPath>
</defs>
</svg>
