<svg width="34" height="34" viewBox="0 0 34 34" fill="none" xmlns="http://www.w3.org/2000/svg">
<path d="M15.9981 3.24818C16.5513 2.69494 17.4484 2.69494 18.0016 3.24818L23.6682 8.91485C24.2214 9.4681 24.2214 10.3651 23.6682 10.9183C23.115 11.4716 22.218 11.4716 21.6648 10.9183L18.4165 7.67005V22.6666C18.4165 23.449 17.7823 24.0833 16.9998 24.0833C16.2174 24.0833 15.5832 23.449 15.5832 22.6666V7.67005L12.3349 10.9183C11.7817 11.4716 10.8847 11.4716 10.3314 10.9183C9.77819 10.3651 9.77819 9.4681 10.3314 8.91485L15.9981 3.24818ZM7.08317 24.0833C7.86557 24.0833 8.49984 24.7175 8.49984 25.4999V28.3333H25.4998V25.4999C25.4998 24.7175 26.1341 24.0833 26.9165 24.0833C27.6989 24.0833 28.3332 24.7175 28.3332 25.4999V28.3333C28.3332 29.8981 27.0647 31.1666 25.4998 31.1666H8.49984C6.93503 31.1666 5.6665 29.8981 5.6665 28.3333V25.4999C5.6665 24.7175 6.30077 24.0833 7.08317 24.0833Z" fill="#000"/>
</svg>
