<svg width="34" height="34" viewBox="0 0 34 34" fill="none" xmlns="http://www.w3.org/2000/svg">
<path d="M2.83317 1.41675C2.05077 1.41675 1.4165 2.05102 1.4165 2.83341V29.7501C1.4165 31.3149 2.68503 32.5834 4.24984 32.5834H31.1665C31.9489 32.5834 32.5832 31.9492 32.5832 31.1667C32.5832 30.3843 31.9489 29.7501 31.1665 29.7501H5.6665C4.88411 29.7501 4.24984 29.1158 4.24984 28.3334V2.83341C4.24984 2.05102 3.61557 1.41675 2.83317 1.41675Z" fill="#000"/>
<path d="M8.5 19.8334C8.5 19.051 9.13426 18.4167 9.91667 18.4167C10.6991 18.4167 11.3333 19.051 11.3333 19.8334V24.0834C11.3333 24.8658 10.6991 25.5001 9.91667 25.5001C9.13426 25.5001 8.5 24.8658 8.5 24.0834V19.8334Z" fill="#000"/>
<path d="M15.5832 14.1667C14.8007 14.1667 14.1665 14.801 14.1665 15.5834V24.0834C14.1665 24.8658 14.8007 25.5001 15.5832 25.5001C16.3656 25.5001 16.9998 24.8658 16.9998 24.0834V15.5834C16.9998 14.801 16.3656 14.1667 15.5832 14.1667Z" fill="#000"/>
<path d="M19.8335 11.3334C19.8335 10.551 20.4677 9.91675 21.2502 9.91675C22.0326 9.91675 22.6668 10.551 22.6668 11.3334V24.0834C22.6668 24.8658 22.0326 25.5001 21.2502 25.5001C20.4677 25.5001 19.8335 24.8658 19.8335 24.0834V11.3334Z" fill="#000"/>
<path d="M26.9167 5.66675C26.1342 5.66675 25.5 6.30102 25.5 7.08341V24.0834C25.5 24.8658 26.1342 25.5001 26.9167 25.5001C27.6991 25.5001 28.3333 24.8658 28.3333 24.0834V7.08341C28.3333 6.30102 27.6991 5.66675 26.9167 5.66675Z" fill="#000"/>
</svg>
