<svg width="34" height="34" viewBox="0 0 34 34" fill="none" xmlns="http://www.w3.org/2000/svg">
<path d="M2.54403 4.29932H0.37226C0.166773 4.29932 0 4.46609 0 4.67158V29.3286C0 29.5341 0.166773 29.7009 0.37226 29.7009H2.54403C2.74951 29.7009 2.91629 29.5341 2.91629 29.3286V4.67158C2.91629 4.46609 2.74951 4.29932 2.54403 4.29932Z" fill="#000"/>
<path d="M23.0962 4.29932H21.5446C21.3388 4.29932 21.1724 4.46609 21.1724 4.67158V29.3286C21.1724 29.5341 21.3388 29.7009 21.5446 29.7009H23.0962C23.3021 29.7009 23.4685 29.5341 23.4685 29.3286V4.67158C23.4685 4.46609 23.3021 4.29932 23.0962 4.29932Z" fill="#000"/>
<path d="M6.32859 4.29932H4.83955C4.63406 4.29932 4.46729 4.46609 4.46729 4.67158V29.3286C4.46729 29.5341 4.63406 29.7009 4.83955 29.7009H6.32859C6.53407 29.7009 6.70085 29.5341 6.70085 29.3286V4.67158C6.70085 4.46609 6.53407 4.29932 6.32859 4.29932Z" fill="#000"/>
<path d="M33.6279 4.29932H32.1389C31.9334 4.29932 31.7666 4.46609 31.7666 4.67158V29.3286C31.7666 29.5341 31.9334 29.7009 32.1389 29.7009H33.6279C33.8338 29.7009 34.0002 29.5341 34.0002 29.3286V4.67158C34.0002 4.46609 33.8338 4.29932 33.6279 4.29932Z" fill="#000"/>
<path d="M30.2154 4.29932H29.2014C28.9955 4.29932 28.8291 4.46609 28.8291 4.67158V29.3286C28.8291 29.5341 28.9955 29.7009 29.2014 29.7009H30.2154C30.4209 29.7009 30.5877 29.5341 30.5877 29.3286V4.67158C30.5877 4.46609 30.4209 4.29932 30.2154 4.29932Z" fill="#000"/>
<path d="M19.311 4.29932H17.822C17.6161 4.29932 17.4497 4.46609 17.4497 4.67158V29.3286C17.4497 29.5341 17.6161 29.7009 17.822 29.7009H19.311C19.5165 29.7009 19.6833 29.5341 19.6833 29.3286V4.67158C19.6833 4.46609 19.5165 4.29932 19.311 4.29932Z" fill="#000"/>
<path d="M15.697 4.29932H14.7663C14.5608 4.29932 14.394 4.46609 14.394 4.67158V29.3286C14.394 29.5341 14.5608 29.7009 14.7663 29.7009H15.697C15.9024 29.7009 16.0692 29.5341 16.0692 29.3286V4.67158C16.0692 4.46609 15.9024 4.29932 15.697 4.29932Z" fill="#000"/>
<path d="M27.3695 4.29932H26.7951C26.5893 4.29932 26.4229 4.46609 26.4229 4.67158V29.3286C26.4229 29.5341 26.5893 29.7009 26.7951 29.7009H27.3695C27.575 29.7009 27.7418 29.5341 27.7418 29.3286V4.67158C27.7418 4.46609 27.5754 4.29932 27.3695 4.29932Z" fill="#000"/>
<path d="M12.5327 4.29932H11.0436C10.8382 4.29932 10.6714 4.46609 10.6714 4.67158V29.3286C10.6714 29.5341 10.8382 29.7009 11.0436 29.7009H12.5327C12.7382 29.7009 12.9049 29.5341 12.9049 29.3286V4.67158C12.9049 4.46609 12.7382 4.29932 12.5327 4.29932Z" fill="#000"/>
<path d="M8.81044 4.29932H8.43818C8.23269 4.29932 8.06592 4.46609 8.06592 4.67158V29.3286C8.06592 29.5341 8.23269 29.7009 8.43818 29.7009H8.81044C9.01593 29.7009 9.1827 29.5341 9.1827 29.3286V4.67158C9.1827 4.46609 9.01593 4.29932 8.81044 4.29932Z" fill="#000"/>
<path d="M25.0259 4.29932H24.8908C24.6857 4.29932 24.5186 4.46609 24.5186 4.67158V29.3286C24.5186 29.5341 24.6857 29.7009 24.8908 29.7009H25.0259C25.2311 29.7009 25.3982 29.5341 25.3982 29.3286V4.67158C25.3982 4.46609 25.2307 4.29932 25.0259 4.29932Z" fill="#000"/>
</svg>
