<svg width="34" height="34" viewBox="0 0 34 34" fill="none" xmlns="http://www.w3.org/2000/svg">
<path d="M9 3C9 2.44772 9.44772 2 10 2H16C16.5523 2 17 2.44772 17 3H19C20.1046 3 21 3.89543 21 5V20C21 21.1046 20.1046 22 19 22H7C5.89543 22 5 21.1046 5 20V5C5 3.89543 5.89543 3 7 3H9ZM9 5H7V20H19V5H17V6C17 6.55228 16.5523 7 16 7H10C9.44772 7 9 6.55228 9 6V5ZM15 4H11V5H15V4Z" fill="#000"/>
<rect x="11" y="9" width="14" height="17" fill="white"/>
<path d="M14 8C14 7.44772 14.4477 7 15 7H21C21.5523 7 22 7.44772 22 8H24C25.1046 8 26 8.89543 26 10V25C26 26.1046 25.1046 27 24 27H12C10.8954 27 10 26.1046 10 25V10C10 8.89543 10.8954 8 12 8H14ZM14 10H12V25H24V10H22V11C22 11.5523 21.5523 12 21 12H15C14.4477 12 14 11.5523 14 11V10ZM20 9H16V10H20V9Z" fill="#000"/>
<rect x="15" y="14" width="14" height="17" fill="white"/>
<path d="M19 13C19 12.4477 19.4477 12 20 12H26C26.5523 12 27 12.4477 27 13H29C30.1046 13 31 13.8954 31 15V30C31 31.1046 30.1046 32 29 32H17C15.8954 32 15 31.1046 15 30V15C15 13.8954 15.8954 13 17 13H19ZM19 15H17V30H29V15H27V16C27 16.5523 26.5523 17 26 17H20C19.4477 17 19 16.5523 19 16V15ZM25 14H21V15H25V14ZM26.7071 20.7929C27.0976 21.1834 27.0976 21.8166 26.7071 22.2071L22.7071 26.2071C22.3166 26.5976 21.6834 26.5976 21.2929 26.2071L19.2929 24.2071C18.9024 23.8166 18.9024 23.1834 19.2929 22.7929C19.6834 22.4024 20.3166 22.4024 20.7071 22.7929L22 24.0858L25.2929 20.7929C25.6834 20.4024 26.3166 20.4024 26.7071 20.7929Z" fill="#000"/>
</svg>
