<svg width="34" height="34" viewBox="0 0 34 34" fill="none" xmlns="http://www.w3.org/2000/svg">
<rect width="34" height="34" fill="white"/>
<path d="M11.25 2.55C11.25 1.69397 11.9496 1 12.8125 1H22.1875C23.0505 1 23.75 1.69397 23.75 2.55H26.875C28.6009 2.55 30 3.93792 30 5.65V28.9C30 30.6121 28.6009 32 26.875 32H8.125C6.39911 32 5 30.6121 5 28.9V5.65C5 3.93792 6.39911 2.55 8.125 2.55H11.25ZM11.25 5.65H8.125V28.9H26.875V5.65H23.75V7.2C23.75 8.05603 23.0505 8.75 22.1875 8.75H12.8125C11.9496 8.75 11.25 8.05603 11.25 7.2V5.65ZM20.625 4.1H14.375V5.65H20.625V4.1ZM23.2923 14.629C23.9025 15.2343 23.9025 16.2157 23.2923 16.821L17.0423 23.021C16.4322 23.6263 15.4428 23.6263 14.8327 23.021L11.7076 19.921C11.0975 19.3157 11.0975 18.3343 11.7076 17.729C12.3178 17.1237 13.3072 17.1237 13.9174 17.729L15.9375 19.733L21.0827 14.629C21.6928 14.0237 22.6822 14.0237 23.2923 14.629Z" fill="#000"/>
</svg>
