<svg width="34" height="34" viewBox="0 0 34 34" fill="none" xmlns="http://www.w3.org/2000/svg">
<path fill-rule="evenodd" clip-rule="evenodd" d="M17 7.86006C15.1944 7.86006 13.7308 9.33319 13.7308 11.1504C13.7308 12.9676 15.1944 14.4407 17 14.4407C18.8055 14.4407 20.2692 12.9676 20.2692 11.1504C20.2692 9.33319 18.8055 7.86006 17 7.86006ZM11.5513 11.1504C11.5513 8.12173 13.9907 5.6665 17 5.6665C20.0093 5.6665 22.4488 8.12173 22.4488 11.1504C22.4488 14.1791 20.0093 16.6343 17 16.6343C13.9907 16.6343 11.5513 14.1791 11.5513 11.1504Z" fill="#000"/>
<path fill-rule="evenodd" clip-rule="evenodd" d="M14.8504 21.0214C12.6272 21.0214 10.825 22.8353 10.825 25.0728C10.825 25.1165 10.8287 25.1516 10.8335 25.1779C10.8342 25.1815 10.8349 25.1847 10.8355 25.1877C11.4175 25.512 13.0645 26.1397 17.0002 26.1397C20.9359 26.1397 22.5829 25.512 23.165 25.1877C23.1655 25.1847 23.1663 25.1815 23.1668 25.1779C23.1718 25.1516 23.1755 25.1165 23.1755 25.0728C23.1755 22.8353 21.3732 21.0214 19.15 21.0214H14.8504ZM8.64551 25.0728C8.64551 21.6238 11.4235 18.8279 14.8504 18.8279H19.15C22.5769 18.8279 25.3549 21.6238 25.3549 25.0728C25.3549 25.6882 25.1477 26.5602 24.3244 27.0472C23.3241 27.639 21.2594 28.3333 17.0002 28.3333C12.741 28.3333 10.6764 27.639 9.67602 27.0472C8.85271 26.5602 8.64551 25.6882 8.64551 25.0728Z" fill="#000"/>
<path fill-rule="evenodd" clip-rule="evenodd" d="M23.5763 7.93955C23.7334 7.3548 24.3317 7.00888 24.9127 7.16693C26.9014 7.70787 28.2608 9.67345 28.2608 11.8816C28.2608 14.2154 26.6695 16.3515 24.395 16.6264C23.7975 16.6987 23.2549 16.2697 23.1832 15.6683C23.1114 15.067 23.5376 14.5208 24.1352 14.4486C25.13 14.3283 26.0814 13.3026 26.0814 11.8816C26.0814 10.5327 25.2613 9.53402 24.344 9.28449C23.763 9.12646 23.4193 8.5243 23.5763 7.93955Z" fill="#000"/>
<path fill-rule="evenodd" clip-rule="evenodd" d="M26.1014 19.7146C26.2166 19.1201 26.7889 18.7321 27.3795 18.8481C29.5792 19.2798 31.1667 21.2194 31.1667 23.4748V24.0677C31.1667 24.6307 30.999 25.4813 30.218 25.9836C29.7298 26.2977 28.99 26.6213 27.8714 26.8491C27.2815 26.9692 26.7066 26.5853 26.5872 25.9915C26.4679 25.3978 26.8493 24.8191 27.4392 24.6991C28.2688 24.5301 28.7375 24.3178 28.9791 24.1755L28.9794 24.1735C28.9839 24.147 28.9872 24.1118 28.9872 24.0677V23.4748C28.9872 22.2688 28.1384 21.232 26.9623 21.0011C26.3717 20.8852 25.9862 20.3092 26.1014 19.7146Z" fill="#000"/>
<path fill-rule="evenodd" clip-rule="evenodd" d="M10.4237 15.8238C10.2667 16.4085 9.66843 16.7544 9.08742 16.5963C7.09875 16.0555 5.73926 14.0899 5.73926 11.8817C5.73926 9.54793 7.33063 7.41181 9.60501 7.13684C10.2026 7.06459 10.7452 7.49358 10.817 8.09498C10.8887 8.6964 10.4625 9.24249 9.86496 9.31473C8.87012 9.435 7.91874 10.4608 7.91874 11.8817C7.91874 13.2306 8.73875 14.2294 9.65606 14.4788C10.2371 14.6368 10.5808 15.239 10.4237 15.8238Z" fill="#000"/>
<path fill-rule="evenodd" clip-rule="evenodd" d="M7.89882 19.7146C7.78361 19.1201 7.21135 18.7321 6.62063 18.8481C4.42101 19.2798 2.8335 21.2194 2.8335 23.4748V24.0677C2.8335 24.6307 3.0012 25.4813 3.78221 25.9836C4.27039 26.2977 5.01025 26.6213 6.12879 26.8491C6.71869 26.9692 7.29364 26.5853 7.413 25.9915C7.53234 25.3978 7.15089 24.8191 6.56099 24.6991C5.73137 24.5301 5.26268 24.3178 5.02115 24.1755L5.02083 24.1735C5.01632 24.147 5.01298 24.1118 5.01298 24.0677V23.4748C5.01298 22.2688 5.86176 21.232 7.03782 21.0011C7.62854 20.8852 8.01402 20.3092 7.89882 19.7146Z" fill="#000"/>
</svg>
