<svg width="34" height="34" viewBox="0 0 34 34" fill="none" xmlns="http://www.w3.org/2000/svg">
<path d="M28.3332 21.2501C29.1156 21.2501 29.7498 20.6158 29.7498 19.8334C29.7498 19.051 29.1156 18.4167 28.3332 18.4167C27.5507 18.4167 26.9165 19.051 26.9165 19.8334C26.9165 20.6158 27.5507 21.2501 28.3332 21.2501Z" fill="#000"/>
<path fill-rule="evenodd" clip-rule="evenodd" d="M23.7644 1.39592C26.1967 0.652714 28.7328 2.19787 29.1878 4.70016L29.6595 7.2943C31.3572 7.85146 32.5832 9.44919 32.5832 11.3333V15.2488C33.4526 16.027 33.9998 17.1579 33.9998 18.4166V21.2499C33.9998 22.5086 33.4526 23.6396 32.5832 24.4177V28.3333C32.5832 30.6805 30.6804 32.5833 28.3332 32.5833H5.6665C3.3193 32.5833 1.4165 30.6805 1.4165 28.3333V11.3333C1.4165 9.22682 2.94897 7.47829 4.95984 7.14175L23.7644 1.39592ZM29.7498 22.6666C30.5323 22.6666 31.1665 22.0324 31.1665 21.2499V18.4166C31.1665 17.6342 30.5323 16.9999 29.7498 16.9999H25.4998C24.7174 16.9999 24.0832 17.6342 24.0832 18.4166V21.2499C24.0832 22.0324 24.7174 22.6666 25.4998 22.6666H29.7498ZM29.7498 25.4999V28.3333C29.7498 29.1157 29.1156 29.7499 28.3332 29.7499H5.6665C4.88411 29.7499 4.24984 29.1157 4.24984 28.3333V11.3333C4.24984 10.5509 4.88411 9.9166 5.6665 9.9166H28.3332C29.1123 9.9166 29.7445 10.5455 29.7498 11.3234V14.1666H25.4998C23.1526 14.1666 21.2498 16.0693 21.2498 18.4166V21.2499C21.2498 23.5972 23.1526 25.4999 25.4998 25.4999H29.7498ZM26.485 5.10993L26.8332 7.08327H14.1665L24.6827 3.9992C25.4949 3.75558 26.3377 4.275 26.485 5.10993Z" fill="#000"/>
</svg>
