<svg width="34" height="34" viewBox="0 0 34 34" fill="none" xmlns="http://www.w3.org/2000/svg">
<path d="M11 3.5C11 2.67158 11.6716 2 12.5 2H21.5C22.3284 2 23 2.67158 23 3.5H26C27.6569 3.5 29 4.84314 29 6.5V29C29 30.6569 27.6569 32 26 32H8C6.34314 32 5 30.6569 5 29V6.5C5 4.84314 6.34314 3.5 8 3.5H11ZM11 6.5H8V29H26V6.5H23V8C23 8.82842 22.3284 9.5 21.5 9.5H12.5C11.6716 9.5 11 8.82842 11 8V6.5ZM20 5H14V6.5H20V5Z" fill="#000"/>
<path d="M15.575 21.102L15.491 18.652L16.653 18.554C17.0916 18.5167 17.4463 18.3953 17.717 18.19C17.9876 17.9753 18.123 17.6533 18.123 17.224C18.123 16.86 17.997 16.566 17.745 16.342C17.493 16.1087 17.1663 15.992 16.765 15.992C16.485 15.992 16.2423 16.062 16.037 16.202C15.8316 16.342 15.687 16.5193 15.603 16.734L13.643 16.202C13.8296 15.5393 14.1936 15.012 14.735 14.62C15.2856 14.228 15.9623 14.032 16.765 14.032C17.437 14.032 18.0296 14.1673 18.543 14.438C19.0563 14.7087 19.4623 15.0867 19.761 15.572C20.0596 16.048 20.209 16.5987 20.209 17.224C20.209 17.7 20.1016 18.1293 19.887 18.512C19.6816 18.8853 19.3876 19.1933 19.005 19.436C18.6223 19.6787 18.1743 19.8373 17.661 19.912L17.633 21.102H15.575ZM16.597 24.21C16.2516 24.21 15.953 24.084 15.701 23.832C15.449 23.58 15.323 23.2767 15.323 22.922C15.323 22.5767 15.449 22.278 15.701 22.026C15.953 21.774 16.2516 21.648 16.597 21.648C16.9516 21.648 17.255 21.774 17.507 22.026C17.759 22.278 17.885 22.5767 17.885 22.922C17.885 23.2767 17.759 23.58 17.507 23.832C17.255 24.084 16.9516 24.21 16.597 24.21Z" fill="#000"/>
</svg>
