<svg width="34" height="34" viewBox="0 0 34 34" fill="none" xmlns="http://www.w3.org/2000/svg">
<path d="M9.04734 23.4387C8.71374 23.4392 8.38779 23.5387 8.1107 23.7245C7.83361 23.9102 7.61784 24.174 7.49066 24.4824C7.36348 24.7908 7.33061 25.13 7.39621 25.4571C7.46181 25.7842 7.62293 26.0845 7.85919 26.32C8.09545 26.5555 8.39625 26.7157 8.72354 26.7803C9.05084 26.8448 9.38993 26.8109 9.69793 26.6827C10.0059 26.5546 10.269 26.338 10.4539 26.0603C10.6388 25.7826 10.7372 25.4564 10.7367 25.1228C10.7353 24.6757 10.5567 24.2473 10.24 23.9316C9.92337 23.616 9.49447 23.4387 9.04734 23.4387ZM9.04734 25.7497C8.92411 25.7491 8.80379 25.7121 8.70155 25.6434C8.5993 25.5746 8.51971 25.477 8.47279 25.3631C8.42588 25.2491 8.41374 25.1239 8.43791 25.003C8.46208 24.8822 8.52148 24.7712 8.60862 24.6841C8.69575 24.5969 8.80673 24.5375 8.92757 24.5134C9.04841 24.4892 9.1737 24.5013 9.28765 24.5482C9.4016 24.5952 9.49912 24.6747 9.56791 24.777C9.6367 24.8792 9.67369 24.9996 9.67422 25.1228C9.6745 25.2052 9.65847 25.2868 9.62707 25.363C9.59567 25.4392 9.5495 25.5084 9.49124 25.5667C9.43297 25.6249 9.36375 25.6711 9.28757 25.7025C9.21139 25.7339 9.12974 25.7499 9.04734 25.7497Z" fill="#000"/>
<path d="M25.8345 23.4387C25.5009 23.4392 25.1749 23.5387 24.8978 23.7245C24.6207 23.9102 24.4049 24.174 24.2778 24.4824C24.1506 24.7908 24.1177 25.13 24.1833 25.4571C24.2489 25.7842 24.41 26.0845 24.6463 26.32C24.8826 26.5555 25.1834 26.7157 25.5107 26.7803C25.8379 26.8448 26.177 26.8109 26.485 26.6827C26.793 26.5546 27.0561 26.338 27.241 26.0603C27.4259 25.7826 27.5244 25.4564 27.5238 25.1228C27.5224 24.6757 27.3438 24.2473 27.0271 23.9316C26.7105 23.616 26.2816 23.4387 25.8345 23.4387ZM25.8345 25.7497C25.7112 25.7491 25.5909 25.7121 25.4887 25.6434C25.3864 25.5746 25.3068 25.477 25.2599 25.3631C25.213 25.2491 25.2008 25.1239 25.225 25.003C25.2492 24.8822 25.3086 24.7712 25.3957 24.6841C25.4829 24.5969 25.5938 24.5375 25.7147 24.5134C25.8355 24.4892 25.9608 24.5013 26.0748 24.5482C26.1887 24.5952 26.2862 24.6747 26.355 24.777C26.4238 24.8792 26.4608 24.9996 26.4613 25.1228C26.4616 25.2052 26.4456 25.2868 26.4142 25.363C26.3828 25.4392 26.3366 25.5084 26.2783 25.5667C26.2201 25.6249 26.1509 25.6711 26.0747 25.7025C25.9985 25.7339 25.9169 25.7499 25.8345 25.7497Z" fill="#000"/>
<path d="M27.37 13.1379L25.1865 10.827C25.1369 10.7737 25.0769 10.7312 25.0102 10.702C24.9435 10.6727 24.8715 10.6574 24.7987 10.657H22.355C22.2141 10.657 22.079 10.713 21.9793 10.8126C21.8797 10.9122 21.8237 11.0473 21.8237 11.1882V14.6626C21.8237 14.8035 21.8797 14.9386 21.9793 15.0383C22.079 15.1379 22.2141 15.1939 22.355 15.1939H26.9822C27.1231 15.1939 27.2582 15.1379 27.3578 15.0383C27.4574 14.9386 27.5134 14.8035 27.5134 14.6626V13.5045C27.5127 13.3687 27.4616 13.2381 27.37 13.1379ZM26.4509 14.1314H22.8862V11.7195H24.5703L26.4509 13.7117V14.1314Z" fill="#000"/>
<path d="M31.8856 15.316L26.4031 8.74439C26.2991 8.61959 26.1692 8.51886 26.0225 8.44915C25.8757 8.37944 25.7156 8.34242 25.5531 8.34064H20.6178C20.3238 8.34204 20.0422 8.45947 19.8342 8.66739C19.6263 8.87531 19.5089 9.15691 19.5075 9.45096V16.4422H18.8381V11.1881C18.8381 11.0472 18.7822 10.9121 18.6825 10.8125C18.5829 10.7129 18.4478 10.6569 18.3069 10.6569H14.7847V5.40283C14.7847 5.26194 14.7287 5.12681 14.6291 5.02718C14.5295 4.92755 14.3943 4.87158 14.2534 4.87158H8.46812C8.32723 4.87158 8.1921 4.92755 8.09247 5.02718C7.99285 5.12681 7.93687 5.26194 7.93687 5.40283V10.6569H4.42C4.2791 10.6569 4.14398 10.7129 4.04435 10.8125C3.94472 10.9121 3.88875 11.0472 3.88875 11.1881V16.4422H2.39062C2.24973 16.4422 2.1146 16.4982 2.01497 16.5978C1.91535 16.6974 1.85938 16.8326 1.85938 16.9735V22.7588C1.85938 22.8997 1.91535 23.0348 2.01497 23.1344C2.1146 23.234 2.24973 23.29 2.39062 23.29H5.49312C5.21496 23.8287 5.06277 24.4235 5.04806 25.0296C5.03334 25.6356 5.15647 26.2371 5.40817 26.7886C5.65986 27.3402 6.03354 27.8273 6.501 28.2133C6.96846 28.5994 7.51749 28.8742 8.10667 29.017C8.69584 29.1598 9.30977 29.167 9.90211 29.0379C10.4945 28.9088 11.0497 28.6469 11.5261 28.2719C12.0024 27.8969 12.3873 27.4186 12.6518 26.873C12.9163 26.3275 13.0534 25.7291 13.0528 25.1228C13.0521 24.4844 12.8972 23.8557 12.6012 23.29H22.2806C22.0021 23.8284 21.8496 24.4229 21.8346 25.0289C21.8195 25.6348 21.9423 26.2362 22.1937 26.7877C22.4451 27.3392 22.8185 27.8264 23.2857 28.2125C23.753 28.5985 24.3018 28.8734 24.8909 29.0163C25.4799 29.1592 26.0937 29.1664 26.6859 29.0374C27.2781 28.9084 27.8332 28.6465 28.3094 28.2715C28.7856 27.8965 29.1704 27.4182 29.4346 26.8728C29.6989 26.3273 29.8358 25.7289 29.835 25.1228C29.8361 24.4849 29.683 23.8561 29.3888 23.29H31.6094C31.7503 23.29 31.8854 23.234 31.985 23.1344C32.0847 23.0348 32.1406 22.8997 32.1406 22.7588V16.0278C32.1403 15.7682 32.0502 15.5167 31.8856 15.316ZM17.7756 11.7194V16.4422H13.0528V11.7194H17.7756ZM8.99938 5.93408H13.7222V10.6569H8.99938V5.93408ZM11.9903 11.7194V16.4422H10.7366V11.7194H11.9903ZM4.95125 11.7194H9.67406V16.4422H4.95125V11.7194ZM9.04719 28.066C8.47822 28.0669 7.92126 27.9024 7.44415 27.5924C6.96705 27.2824 6.5904 26.8404 6.36011 26.3201C6.12981 25.7998 6.05581 25.2238 6.14712 24.6622C6.23843 24.1006 6.49111 23.5777 6.87437 23.1572C6.89515 23.1353 6.91466 23.1123 6.93281 23.0881C7.26978 22.7381 7.68827 22.477 8.15086 22.3282C8.61344 22.1795 9.10568 22.1478 9.58354 22.2359C10.0614 22.324 10.51 22.5292 10.8891 22.8331C11.2682 23.137 11.5661 23.5301 11.7561 23.9774C11.946 24.4246 12.0222 24.912 11.9776 25.3958C11.9331 25.8797 11.7694 26.345 11.501 26.75C11.2326 27.1551 10.868 27.4873 10.4398 27.717C10.0116 27.9466 9.53309 28.0665 9.04719 28.066ZM19.5075 22.2275H11.8044C11.0628 21.518 10.0761 21.122 9.04984 21.122C8.02355 21.122 7.03684 21.518 6.29531 22.2275H2.92188V17.5047H19.5075V22.2275ZM25.8347 28.066C25.2531 28.0665 24.6845 27.8945 24.2006 27.5719C23.7168 27.2492 23.3395 26.7903 23.1164 26.2532C22.8934 25.7161 22.8346 25.1249 22.9475 24.5544C23.0605 23.9839 23.3401 23.4597 23.7509 23.0481C24.1618 22.6365 24.6855 22.356 25.2558 22.242C25.8261 22.1281 26.4173 22.1858 26.9548 22.4078C27.4923 22.6299 27.9519 23.0064 28.2755 23.4896C28.599 23.9729 28.772 24.5413 28.7725 25.1228C28.7729 25.9026 28.4637 26.6506 27.9128 27.2025C27.3619 27.7544 26.6145 28.065 25.8347 28.066ZM31.0781 19.9166H29.8244V18.6628H31.0781V19.9166ZM31.0781 17.6003H29.8244C29.5428 17.6012 29.2731 17.7134 29.074 17.9125C28.8749 18.1115 28.7627 18.3813 28.7619 18.6628V19.9166C28.7627 20.1981 28.8749 20.4679 29.074 20.667C29.2731 20.866 29.5428 20.9782 29.8244 20.9791H31.0781V22.2275H28.5866C27.8459 21.5184 26.8601 21.1225 25.8347 21.1225C24.8093 21.1225 23.8235 21.5184 23.0828 22.2275H20.57V9.45096C20.5712 9.43868 20.5766 9.42719 20.5853 9.41846C20.594 9.40974 20.6055 9.40432 20.6178 9.40314L25.585 9.42439L31.0781 16.0278V17.6003Z" fill="#000"/>
</svg>
