<svg width="34" height="34" viewBox="0 0 34 34" fill="none" xmlns="http://www.w3.org/2000/svg">
<path d="M28.3571 0H5.64316C4.72336 0 3.9751 0.748266 3.9751 1.66806V32.3319C3.9751 33.2517 4.72336 34 5.64316 34H23.2465C23.3877 34 23.5232 33.944 23.6229 33.8441L29.8693 27.5977C29.9692 27.4979 30.0252 27.3625 30.0252 27.2213V1.66806C30.0252 0.748266 29.2769 0 28.3571 0ZM23.7788 32.1825V28.357C23.7788 28.0243 24.0495 27.7536 24.3822 27.7536H28.2077L23.7788 32.1825ZM28.9605 26.6889H24.3822C23.4624 26.6889 22.7141 27.4372 22.7141 28.357V32.9353H5.64316C5.31046 32.9353 5.03979 32.6646 5.03979 32.3319V1.66806C5.03979 1.33536 5.31046 1.06469 5.64316 1.06469H28.3571C28.6898 1.06469 28.9605 1.33536 28.9605 1.66806V26.6889Z" fill="#000"/>
<path d="M13.5927 4.54272H9.04996C8.75598 4.54272 8.51758 4.78106 8.51758 5.0751C8.51758 5.36915 8.75591 5.60748 9.04996 5.60748H10.789V10.7536C10.789 11.0476 11.0273 11.286 11.3214 11.286C11.6154 11.286 11.8538 11.0477 11.8538 10.7536V5.60748H13.5928C13.8868 5.60748 14.1252 5.36915 14.1252 5.0751C14.1252 4.78106 13.8867 4.54272 13.5927 4.54272Z" fill="#000"/>
<path d="M19.2132 10.6006L17.631 5.32678C17.4903 4.85782 17.0669 4.54272 16.5772 4.54272H16.2865C15.7969 4.54272 15.3734 4.85782 15.2327 5.32678L13.6505 10.6006C13.566 10.8823 13.7258 11.179 14.0075 11.2635C14.2891 11.3482 14.5858 11.1882 14.6703 10.9066L14.8972 10.1503H17.9664L18.1933 10.9066C18.2625 11.1372 18.474 11.2861 18.703 11.2861C18.7536 11.2861 18.8052 11.2788 18.8562 11.2635C19.1379 11.179 19.2978 10.8823 19.2132 10.6006ZM15.2167 9.08551L16.2525 5.63272C16.257 5.61784 16.271 5.60742 16.2865 5.60742H16.5772C16.5928 5.60742 16.6068 5.61778 16.6112 5.63272L17.647 9.08551H15.2167Z" fill="#000"/>
<path d="M24.8181 10.4483L23.0443 7.91441L24.8181 5.38048C24.9867 5.13962 24.9281 4.80766 24.6873 4.63905C24.4464 4.47045 24.1145 4.52895 23.9459 4.76987L22.3945 6.98612L20.8431 4.76987C20.6745 4.52895 20.3425 4.47038 20.1017 4.63905C19.8607 4.80766 19.8022 5.13962 19.9708 5.38048L21.7447 7.91441L19.971 10.4483C19.8024 10.6892 19.8609 11.0212 20.1018 11.1898C20.1947 11.2548 20.3012 11.286 20.4066 11.286C20.5744 11.286 20.7396 11.2068 20.8432 11.0589L22.3945 8.84264L23.9459 11.0589C24.0495 11.2068 24.2147 11.286 24.3825 11.286C24.4879 11.286 24.5944 11.2548 24.6873 11.1898C24.9281 11.0212 24.9868 10.6892 24.8181 10.4483Z" fill="#000"/>
<path d="M9.04989 14.1963H7.91421C7.62023 14.1963 7.38184 14.4346 7.38184 14.7287C7.38184 15.0227 7.62017 15.261 7.91421 15.261H9.04989C9.34387 15.261 9.58227 15.0227 9.58227 14.7287C9.58227 14.4346 9.34387 14.1963 9.04989 14.1963Z" fill="#606060"/>
<path d="M9.04989 16.4675H7.91421C7.62023 16.4675 7.38184 16.7059 7.38184 16.9999C7.38184 17.294 7.62017 17.5323 7.91421 17.5323H9.04989C9.34387 17.5323 9.58227 17.294 9.58227 16.9999C9.58227 16.7059 9.34387 16.4675 9.04989 16.4675Z" fill="#606060"/>
<path d="M9.04989 18.739H7.91421C7.62023 18.739 7.38184 18.9773 7.38184 19.2714C7.38184 19.5654 7.62017 19.8038 7.91421 19.8038H9.04989C9.34387 19.8038 9.58227 19.5654 9.58227 19.2714C9.58227 18.9773 9.34387 18.739 9.04989 18.739Z" fill="#606060"/>
<path d="M26.0855 14.1963H24.9499C24.6559 14.1963 24.4175 14.4346 24.4175 14.7287C24.4175 15.0227 24.6558 15.261 24.9499 15.261H26.0855C26.3795 15.261 26.6179 15.0227 26.6179 14.7287C26.6179 14.4346 26.3796 14.1963 26.0855 14.1963Z" fill="#606060"/>
<path d="M26.0855 16.4675H24.9499C24.6559 16.4675 24.4175 16.7059 24.4175 16.9999C24.4175 17.294 24.6558 17.5323 24.9499 17.5323H26.0855C26.3795 17.5323 26.6179 17.294 26.6179 16.9999C26.6179 16.7059 26.3796 16.4675 26.0855 16.4675Z" fill="#606060"/>
<path d="M26.0855 18.739H24.9499C24.6559 18.739 24.4175 18.9773 24.4175 19.2714C24.4175 19.5654 24.6558 19.8038 24.9499 19.8038H26.0855C26.3795 19.8038 26.6179 19.5654 26.6179 19.2714C26.6179 18.9773 26.3796 18.739 26.0855 18.739Z" fill="#606060"/>
<path d="M18.1356 14.1963H11.3214C11.0275 14.1963 10.7891 14.4346 10.7891 14.7287C10.7891 15.0227 11.0274 15.261 11.3214 15.261H18.1357C18.4296 15.261 18.668 15.0227 18.668 14.7287C18.668 14.4346 18.4296 14.1963 18.1356 14.1963Z" fill="#606060"/>
<path d="M15.8642 16.4675H11.3214C11.0275 16.4675 10.7891 16.7059 10.7891 16.9999C10.7891 17.294 11.0274 17.5323 11.3214 17.5323H15.8642C16.1582 17.5323 16.3966 17.294 16.3966 16.9999C16.3966 16.7059 16.1582 16.4675 15.8642 16.4675Z" fill="#606060"/>
<path d="M18.1356 18.739H11.3214C11.0275 18.739 10.7891 18.9773 10.7891 19.2714C10.7891 19.5654 11.0274 19.8038 11.3214 19.8038H18.1357C18.4296 19.8038 18.668 19.5654 18.668 19.2714C18.668 18.9773 18.4296 18.739 18.1356 18.739Z" fill="#606060"/>
<path d="M17.5679 23.2817H13.5929C13.2989 23.2817 13.0605 23.5201 13.0605 23.8141C13.0605 24.1082 13.2989 24.3465 13.5929 24.3465H17.5679C17.8619 24.3465 18.1002 24.1082 18.1002 23.8141C18.1002 23.5201 17.8619 23.2817 17.5679 23.2817Z" fill="#606060"/>
<path d="M15.8644 27.8247H13.5929C13.2989 27.8247 13.0605 28.063 13.0605 28.3571C13.0605 28.6511 13.2989 28.8895 13.5929 28.8895H15.8644C16.1583 28.8895 16.3967 28.6511 16.3967 28.3571C16.3967 28.0631 16.1583 27.8247 15.8644 27.8247Z" fill="#606060"/>
<path d="M19.2716 27.8247H18.1359C17.8419 27.8247 17.6035 28.063 17.6035 28.3571C17.6035 28.6511 17.8418 28.8895 18.1359 28.8895H19.2716C19.5656 28.8895 19.804 28.6511 19.804 28.3571C19.8039 28.0631 19.5656 27.8247 19.2716 27.8247Z" fill="#606060"/>
<path d="M20.975 25.5532H13.5929C13.2989 25.5532 13.0605 25.7916 13.0605 26.0856C13.0605 26.3796 13.2989 26.618 13.5929 26.618H20.975C21.269 26.618 21.5074 26.3796 21.5074 26.0856C21.5074 25.7916 21.269 25.5532 20.975 25.5532Z" fill="#606060"/>
<path d="M18.1359 17.5323C18.4299 17.5323 18.6683 17.2939 18.6683 16.9999C18.6683 16.7059 18.4299 16.4675 18.1359 16.4675C17.8419 16.4675 17.6035 16.7059 17.6035 16.9999C17.6035 17.2939 17.8419 17.5323 18.1359 17.5323Z" fill="#606060"/>
<path d="M20.4069 17.5323C20.7009 17.5323 20.9393 17.2939 20.9393 16.9999C20.9393 16.7059 20.7009 16.4675 20.4069 16.4675C20.1129 16.4675 19.8745 16.7059 19.8745 16.9999C19.8745 17.2939 20.1129 17.5323 20.4069 17.5323Z" fill="#606060"/>
<path d="M22.6784 17.5323C22.9724 17.5323 23.2108 17.2939 23.2108 16.9999C23.2108 16.7059 22.9724 16.4675 22.6784 16.4675C22.3844 16.4675 22.146 16.7059 22.146 16.9999C22.146 17.2939 22.3844 17.5323 22.6784 17.5323Z" fill="#606060"/>
<path d="M20.4069 15.261C20.7009 15.261 20.9393 15.0227 20.9393 14.7287C20.9393 14.4346 20.7009 14.1963 20.4069 14.1963C20.1129 14.1963 19.8745 14.4346 19.8745 14.7287C19.8745 15.0227 20.1129 15.261 20.4069 15.261Z" fill="#606060"/>
<path d="M22.6784 15.261C22.9724 15.261 23.2108 15.0227 23.2108 14.7287C23.2108 14.4346 22.9724 14.1963 22.6784 14.1963C22.3844 14.1963 22.146 14.4346 22.146 14.7287C22.146 15.0227 22.3844 15.261 22.6784 15.261Z" fill="#606060"/>
<path d="M20.4069 19.8038C20.7009 19.8038 20.9393 19.5654 20.9393 19.2714C20.9393 18.9774 20.7009 18.739 20.4069 18.739C20.1129 18.739 19.8745 18.9774 19.8745 19.2714C19.8745 19.5654 20.1129 19.8038 20.4069 19.8038Z" fill="#606060"/>
<path d="M22.6784 19.8038C22.9724 19.8038 23.2108 19.5654 23.2108 19.2714C23.2108 18.9774 22.9724 18.739 22.6784 18.739C22.3844 18.739 22.146 18.9774 22.146 19.2714C22.146 19.5654 22.3844 19.8038 22.6784 19.8038Z" fill="#606060"/>
</svg>
