<svg width="53" height="53" viewBox="0 0 53 53" fill="none" xmlns="http://www.w3.org/2000/svg">
<path d="M53 26.5C53 41.1355 41.1355 53 26.5 53C11.8645 53 0 41.1355 0 26.5C0 11.8645 11.8645 0 26.5 0C41.1355 0 53 11.8645 53 26.5Z" fill="#F5F5F5"/>
<g clip-path="url(#clip0_58_786)">
<path fill-rule="evenodd" clip-rule="evenodd" d="M21.8492 18.75C21.0588 18.75 20.3264 19.1647 19.9198 19.8424L18.4617 22.2725C18.1335 22.8196 18.009 23.5691 18.3815 24.2401C18.5921 24.6196 18.9558 25.1639 19.4999 25.5904V33C19.4999 34.2427 20.5072 35.25 21.7499 35.25H23.9999C24.8283 35.25 25.4999 34.5785 25.4999 33.75V29.25H28.4999V33.75C28.4999 34.5785 29.1714 35.25 29.9999 35.25H32.2499C33.4926 35.25 34.4999 34.2427 34.4999 33V25.5904C35.0439 25.1639 35.4076 24.6196 35.6183 24.2401C35.9908 23.5691 35.8662 22.8196 35.538 22.2725L34.08 19.8424C33.6733 19.1647 32.9409 18.75 32.1506 18.75H21.8492ZM32.9999 26.2273C32.8792 26.2421 32.7543 26.25 32.6249 26.25C31.5943 26.25 30.8343 25.7412 30.3272 25.2036C30.1973 25.0658 30.081 24.9234 29.9778 24.7824C29.4124 25.4911 28.4655 26.25 26.9999 26.25C25.5342 26.25 24.5874 25.4911 24.022 24.7824C23.9187 24.9234 23.8025 25.0658 23.6725 25.2036C23.1654 25.7412 22.4054 26.25 21.3749 26.25C21.2455 26.25 21.1205 26.2421 20.9999 26.2273V33C20.9999 33.4142 21.3357 33.75 21.7499 33.75H23.9999V29.25C23.9999 28.4215 24.6714 27.75 25.4999 27.75H28.4999C29.3283 27.75 29.9999 28.4215 29.9999 29.25V33.75H32.2499C32.6641 33.75 32.9999 33.4142 32.9999 33V26.2273ZM21.206 20.6141C21.3416 20.3882 21.5857 20.25 21.8492 20.25H32.1506C32.4141 20.25 32.6582 20.3882 32.7937 20.6141L34.2518 23.0443C34.3742 23.2482 34.3594 23.4173 34.3068 23.512C33.9637 24.1301 33.4119 24.75 32.6249 24.75C32.1335 24.75 31.7421 24.5175 31.4184 24.1743C31.0878 23.8239 30.8743 23.4029 30.7712 23.163C30.6084 22.7846 30.2496 22.6604 30.0024 22.6594C29.7554 22.6583 29.3985 22.7788 29.2313 23.1512C29.0025 23.6607 28.3485 24.75 26.9999 24.75C25.6512 24.75 24.9972 23.6607 24.7685 23.1512C24.6012 22.7788 24.2444 22.6583 23.9974 22.6594C23.7502 22.6604 23.3913 22.7846 23.2286 23.163C23.1254 23.4029 22.9119 23.8239 22.5814 24.1743C22.2576 24.5175 21.8663 24.75 21.3749 24.75C20.5879 24.75 20.0361 24.1301 19.6929 23.512C19.6404 23.4173 19.6256 23.2482 19.7479 23.0443L21.206 20.6141Z" fill="black"/>
</g>
<defs>
<clipPath id="clip0_58_786">
<rect width="18" height="18" fill="white" transform="translate(18 18)"/>
</clipPath>
</defs>
</svg>
