<svg width="34" height="34" viewBox="0 0 34 34" fill="none" xmlns="http://www.w3.org/2000/svg">
<path d="M14.1668 5.66659C9.47241 5.66659 5.66683 9.47216 5.66683 14.1666C5.66683 18.861 9.47241 22.6666 14.1668 22.6666C18.8612 22.6666 22.6668 18.861 22.6668 14.1666C22.6668 9.47216 18.8612 5.66659 14.1668 5.66659ZM2.8335 14.1666C2.8335 7.90735 7.9076 2.83325 14.1668 2.83325C20.4261 2.83325 25.5002 7.90735 25.5002 14.1666C25.5002 16.7856 24.6118 19.1972 23.12 21.1162L30.7519 28.7482C31.3051 29.3014 31.3051 30.1984 30.7519 30.7516C30.1987 31.3049 29.3016 31.3049 28.7484 30.7516L21.1164 23.1198C19.1974 24.6115 16.7858 25.4999 14.1668 25.4999C7.9076 25.4999 2.8335 20.4258 2.8335 14.1666Z" fill="#606060"/>
</svg>
