<svg width="34" height="34" viewBox="0 0 34 34" fill="none" xmlns="http://www.w3.org/2000/svg">
<path d="M17.0002 5.66659C16.2177 5.66659 15.5835 6.30086 15.5835 7.08325C15.5835 9.48062 12.685 10.6812 10.9898 8.98603C10.4365 8.43278 9.53956 8.43278 8.98632 8.98603C8.43308 9.53927 8.43308 10.4363 8.98632 10.9895C10.6816 12.6848 9.48082 15.5833 7.0835 15.5833C6.3011 15.5833 5.66683 16.2175 5.66683 16.9999C5.66683 17.7823 6.3011 18.4166 7.0835 18.4166C9.48101 18.4166 10.6813 21.3152 8.98624 23.0103C8.43298 23.5636 8.43298 24.4605 8.98624 25.0139C9.53947 25.5671 10.4364 25.5671 10.9897 25.0139C12.6849 23.3187 15.5835 24.5192 15.5835 26.9166C15.5835 27.699 16.2177 28.3333 17.0002 28.3333C17.7826 28.3333 18.4168 27.699 18.4168 26.9166C18.4168 24.5192 21.3153 23.3185 23.0107 25.0137C23.5639 25.5671 24.4609 25.5671 25.0141 25.0137C25.5673 24.4605 25.5673 23.5636 25.0141 23.0103C23.3189 21.3152 24.5194 18.4166 26.9168 18.4166C27.6993 18.4166 28.3335 17.7823 28.3335 16.9999C28.3335 16.2175 27.6993 15.5833 26.9168 15.5833C24.5195 15.5833 23.3186 12.6848 25.014 10.9895C25.5672 10.4363 25.5672 9.5393 25.014 8.98605C24.4608 8.43281 23.5637 8.43281 23.0105 8.98605C21.3153 10.6813 18.4168 9.48052 18.4168 7.08325C18.4168 6.30086 17.7826 5.66659 17.0002 5.66659ZM12.7617 6.76738C12.9233 4.56768 14.7591 2.83325 17.0002 2.83325C19.2412 2.83325 21.077 4.56768 21.2385 6.76738C22.9082 5.32626 25.4329 5.39799 27.0174 6.98258C28.6021 8.56718 28.6738 11.0918 27.2326 12.7615C29.4324 12.923 31.1668 14.7589 31.1668 16.9999C31.1668 19.2409 29.4324 21.0768 27.2327 21.2383C28.6739 22.908 28.6021 25.4326 27.0176 27.0173C25.4329 28.6019 22.9084 28.6735 21.2385 27.2324C21.077 29.4322 19.2412 31.1666 17.0002 31.1666C14.7591 31.1666 12.9233 29.4322 12.7617 27.2324C11.092 28.6735 8.56738 28.6019 6.98276 27.0173C5.39814 25.4326 5.32643 22.908 6.76761 21.2383C4.56792 21.0768 2.8335 19.2409 2.8335 16.9999C2.8335 14.7589 4.56796 12.923 6.76771 12.7615C5.32652 11.0918 5.39824 8.56717 6.98286 6.98256C8.56745 5.39796 11.092 5.32623 12.7617 6.76738Z" fill="#606060"/>
<path d="M16.9997 14.1666C16.2483 14.1666 15.5276 14.4651 14.9962 14.9965C14.4648 15.5279 14.1663 16.2485 14.1663 16.9999C14.1663 17.7513 14.4648 18.472 14.9962 19.0034C15.5276 19.5348 16.2483 19.8333 16.9997 19.8333C17.7511 19.8333 18.4717 19.5348 19.0031 19.0034C19.5345 18.472 19.833 17.7513 19.833 16.9999C19.833 16.2485 19.5345 15.5279 19.0031 14.9965C18.4717 14.4651 17.7511 14.1666 16.9997 14.1666ZM12.9927 12.993C14.0554 11.9303 15.4967 11.3333 16.9997 11.3333C18.5026 11.3333 19.9439 11.9303 21.0066 12.993C22.0694 14.0557 22.6663 15.497 22.6663 16.9999C22.6663 18.5029 22.0694 19.9442 21.0066 21.0068C19.9439 22.0696 18.5026 22.6666 16.9997 22.6666C15.4967 22.6666 14.0554 22.0696 12.9927 21.0068C11.93 19.9442 11.333 18.5029 11.333 16.9999C11.333 15.497 11.93 14.0557 12.9927 12.993Z" fill="#606060"/>
</svg>
