<svg width="38" height="38" viewBox="0 0 38 38" fill="none" xmlns="http://www.w3.org/2000/svg">
<g filter="url(#filter0_d_60_3167)">
<circle cx="19" cy="19" r="15" fill="white"/>
</g>
<path d="M19 9C19.5523 9 20 9.44772 20 10V11C20 11.5523 19.5523 12 19 12C18.4477 12 18 11.5523 18 11V10C18 9.44772 18.4477 9 19 9ZM26.0711 11.9289C26.4616 12.3194 26.4616 12.9526 26.0711 13.3431L25.364 14.0503C24.9735 14.4408 24.3403 14.4408 23.9498 14.0503C23.5593 13.6597 23.5593 13.0266 23.9498 12.636L24.6569 11.9289C25.0474 11.5384 25.6806 11.5384 26.0711 11.9289ZM11.9289 11.9289C12.3194 11.5384 12.9526 11.5384 13.3431 11.9289L14.0503 12.636C14.4408 13.0266 14.4408 13.6597 14.0503 14.0503C13.6597 14.4408 13.0266 14.4408 12.636 14.0503L11.9289 13.3431C11.5384 12.9526 11.5384 12.3194 11.9289 11.9289ZM19 15C16.7909 15 15 16.7909 15 19C15 21.2091 16.7909 23 19 23C21.2091 23 23 21.2091 23 19C23 16.7909 21.2091 15 19 15ZM13 19C13 15.6863 15.6863 13 19 13C22.3137 13 25 15.6863 25 19C25 22.3137 22.3137 25 19 25C15.6863 25 13 22.3137 13 19ZM9 19C9 18.4477 9.44772 18 10 18H11C11.5523 18 12 18.4477 12 19C12 19.5523 11.5523 20 11 20H10C9.44772 20 9 19.5523 9 19ZM26 19C26 18.4477 26.4477 18 27 18H28C28.5523 18 29 18.4477 29 19C29 19.5523 28.5523 20 28 20H27C26.4477 20 26 19.5523 26 19ZM12.636 23.9497C13.0266 23.5592 13.6597 23.5592 14.0503 23.9497C14.4408 24.3403 14.4408 24.9734 14.0503 25.364L13.3431 26.0711C12.9526 26.4616 12.3194 26.4616 11.9289 26.0711C11.5384 25.6805 11.5384 25.0474 11.9289 24.6568L12.636 23.9497ZM23.9498 25.364C23.5593 24.9734 23.5593 24.3403 23.9498 23.9497C24.3403 23.5592 24.9735 23.5592 25.364 23.9497L26.0711 24.6568C26.4616 25.0474 26.4616 25.6805 26.0711 26.0711C25.6806 26.4616 25.0474 26.4616 24.6569 26.0711L23.9498 25.364ZM19 26C19.5523 26 20 26.4477 20 27V28C20 28.5523 19.5523 29 19 29C18.4477 29 18 28.5523 18 28V27C18 26.4477 18.4477 26 19 26Z" fill="#FFB600"/>
<defs>
<filter id="filter0_d_60_3167" x="0" y="0" width="38" height="38" filterUnits="userSpaceOnUse" color-interpolation-filters="sRGB">
<feFlood flood-opacity="0" result="BackgroundImageFix"/>
<feColorMatrix in="SourceAlpha" type="matrix" values="0 0 0 0 0 0 0 0 0 0 0 0 0 0 0 0 0 0 127 0" result="hardAlpha"/>
<feOffset/>
<feGaussianBlur stdDeviation="2"/>
<feComposite in2="hardAlpha" operator="out"/>
<feColorMatrix type="matrix" values="0 0 0 0 0 0 0 0 0 0 0 0 0 0 0 0 0 0 0.25 0"/>
<feBlend mode="normal" in2="BackgroundImageFix" result="effect1_dropShadow_60_3167"/>
<feBlend mode="normal" in="SourceGraphic" in2="effect1_dropShadow_60_3167" result="shape"/>
</filter>
</defs>
</svg>
