<svg width="34" height="34" viewBox="0 0 34 34" fill="none" xmlns="http://www.w3.org/2000/svg">
<path d="M33.3227 9.7042H23.0279V9.05514C23.0279 7.25633 21.5645 5.7928 19.7656 5.7928H19.6752V2.2161C19.6752 1.84203 19.372 1.53882 18.998 1.53882H15.002C14.628 1.53882 14.3247 1.84203 14.3247 2.2161V5.79287H14.2344C12.4356 5.79287 10.9721 7.25626 10.9721 9.05521V9.70426H0.677277C0.303277 9.7042 0 10.0074 0 10.3815V31.7839C0 32.1579 0.303277 32.4612 0.677277 32.4612H33.3227C33.6967 32.4612 34 32.1579 34 31.7839V10.3815C34 10.0074 33.6967 9.7042 33.3227 9.7042ZM15.6793 2.89337H18.3208V7.5539H15.6793V2.89337ZM12.3267 9.05514C12.3267 8.00327 13.1825 7.14742 14.2344 7.14742H14.3247V8.23111C14.3247 8.60517 14.628 8.90838 15.002 8.90838H18.998C19.372 8.90838 19.6752 8.60517 19.6752 8.23111V7.14742H19.7656C20.8174 7.14742 21.6733 8.0032 21.6733 9.05514V9.7042H12.3267V9.05514ZM32.6454 31.1066H1.35455V11.0588H32.6454L32.6454 31.1066Z" fill="#606060"/>
<path d="M29.5528 20.3181H20.6529C20.2789 20.3181 19.9756 20.6213 19.9756 20.9954C19.9756 21.3695 20.2788 21.6727 20.6529 21.6727H29.5528C29.9268 21.6727 30.2301 21.3695 30.2301 20.9954C30.2301 20.6213 29.9268 20.3181 29.5528 20.3181Z" fill="#606060"/>
<path d="M29.5896 15.9692H29.0562C28.6822 15.9692 28.3789 16.2724 28.3789 16.6465C28.3789 17.0206 28.6822 17.3238 29.0562 17.3238H29.5896C29.9636 17.3238 30.2668 17.0206 30.2668 16.6465C30.2668 16.2724 29.9636 15.9692 29.5896 15.9692Z" fill="#606060"/>
<path d="M26.4823 15.9692H20.6529C20.2789 15.9692 19.9756 16.2724 19.9756 16.6465C19.9756 17.0206 20.2788 17.3238 20.6529 17.3238H26.4823C26.8563 17.3238 27.1596 17.0206 27.1596 16.6465C27.1596 16.2724 26.8563 15.9692 26.4823 15.9692Z" fill="#606060"/>
<path d="M29.5528 24.7205H20.6529C20.2789 24.7205 19.9756 25.0237 19.9756 25.3977C19.9756 25.7718 20.2788 26.075 20.6529 26.075H29.5528C29.9268 26.075 30.2301 25.7718 30.2301 25.3977C30.2301 25.0237 29.9268 24.7205 29.5528 24.7205Z" fill="#606060"/>
<path d="M17.0681 14.3267H4.60599C4.23199 14.3267 3.92871 14.6299 3.92871 15.0039V27.4661C3.92871 27.8401 4.23199 28.1433 4.60599 28.1433H17.0681C17.4421 28.1433 17.7454 27.8401 17.7454 27.4661V15.0039C17.7454 14.6299 17.4421 14.3267 17.0681 14.3267ZM16.3908 26.7888H5.28327V15.6812H16.3908V26.7888Z" fill="#606060"/>
<path d="M12.8369 21.1015C13.1761 20.6694 13.3792 20.1255 13.3792 19.5348C13.3792 18.1331 12.2388 16.9927 10.8371 16.9927C9.43528 16.9927 8.29489 18.1331 8.29489 19.5348C8.29489 20.1256 8.49802 20.6695 8.83723 21.1015C7.24952 21.7258 6.14844 23.0688 6.14844 24.6216C6.14844 24.9957 6.45171 25.2989 6.82571 25.2989H14.8483C15.2223 25.2989 15.5256 24.9957 15.5256 24.6216C15.5257 23.0688 14.4246 21.7258 12.8369 21.1015ZM10.8371 18.3473C11.4919 18.3473 12.0247 18.8801 12.0247 19.5348C12.0247 20.1896 11.4919 20.7224 10.8371 20.7224C10.1824 20.7224 9.64957 20.1896 9.64957 19.5348C9.64957 18.88 10.1824 18.3473 10.8371 18.3473ZM7.62365 23.9443C8.01392 22.8725 9.30678 22.0833 10.8371 22.0833C12.3674 22.0833 13.6604 22.8725 14.0506 23.9443H7.62365Z" fill="#606060"/>
<path d="M16.9995 3.48193C16.6255 3.48193 16.3223 3.78514 16.3223 4.15921V4.30285C16.3223 4.67691 16.6255 4.98013 16.9995 4.98013C17.3735 4.98013 17.6768 4.67691 17.6768 4.30285V4.15921C17.6768 3.78514 17.3735 3.48193 16.9995 3.48193Z" fill="#606060"/>
</svg>
