<svg width="34" height="34" viewBox="0 0 34 34" fill="none" xmlns="http://www.w3.org/2000/svg">
<path fill-rule="evenodd" clip-rule="evenodd" d="M15.5833 28.3333C15.5833 27.5509 14.9491 26.9167 14.1667 26.9167H7.08333V7.08333H14.1667C14.9491 7.08333 15.5833 6.44906 15.5833 5.66667C15.5833 4.88426 14.9491 4.25 14.1667 4.25H7.08333C5.51853 4.25 4.25 5.51853 4.25 7.08333V26.9167C4.25 28.4815 5.51853 29.75 7.08333 29.75H14.1667C14.9491 29.75 15.5833 29.1158 15.5833 28.3333Z" fill="#606060"/>
<path d="M30.7606 17.9925C30.8919 17.8589 30.9912 17.7056 31.0588 17.5424C31.1277 17.3765 31.1658 17.1949 31.1663 17.0043V17.0001V16.9958C31.1652 16.6347 31.0269 16.2739 30.7514 15.9984L25.0847 10.3317C24.5315 9.77844 23.6345 9.77844 23.0813 10.3317C22.5281 10.8849 22.5281 11.7819 23.0813 12.3352L26.3296 15.5834H12.7497C11.9673 15.5834 11.333 16.2177 11.333 17.0001C11.333 17.7825 11.9673 18.4167 12.7497 18.4167H26.3296L23.0813 21.665C22.5281 22.2182 22.5281 23.1153 23.0813 23.6685C23.6345 24.2217 24.5315 24.2217 25.0847 23.6685L30.7504 18.0028L30.7606 17.9925Z" fill="#606060"/>
</svg>
