<svg width="34" height="34" viewBox="0 0 34 34" fill="none" xmlns="http://www.w3.org/2000/svg">
<g clip-path="url(#clip0_25_343)">
<path d="M33.1309 0.410656C32.7622 0.14025 32.3202 0.00053125 31.8739 0.00053125C31.6598 0.00053125 31.4442 0.0329375 31.2354 0.0988125L21.7988 3.07859L12.8903 0.108906C12.6724 0.036125 12.4456 0 12.2182 0C11.9696 0 11.7204 0.0435625 11.484 0.131219L1.39028 3.84997C0.555156 4.15756 0 4.95337 0 5.84375V31.875C0 32.5518 0.322469 33.1888 0.869125 33.5893C1.23781 33.8592 1.67875 34 2.125 34C2.33963 34 2.55584 33.9671 2.76463 33.9012L12.2188 30.9156L21.6729 33.9012C21.8811 33.9671 22.0963 34 22.312 34C22.5393 34 22.7662 33.9639 22.9845 33.8911L32.547 30.7036C33.4146 30.4141 34 29.6023 34 28.6875V2.125C34 1.44819 33.6775 0.811219 33.1309 0.410656ZM31.5541 1.11244C31.6577 1.0795 31.7656 1.06303 31.8745 1.06303C32.1003 1.06303 32.3234 1.13581 32.5035 1.26809C32.7749 1.46731 32.9375 1.78766 32.9375 2.125V15.4519C32.8132 15.4328 32.6841 15.4078 32.5486 15.3818C31.9287 15.258 31.5398 15.105 31.0717 14.5605C30.5192 13.9294 30.8407 12.9083 30.2318 12.3749C29.997 12.1741 29.7718 12.1072 29.5444 12.1072C29.1067 12.1067 28.6615 12.3558 28.1233 12.3749C27.2383 12.4143 26.6294 12.7766 25.8953 12.7766C25.6684 12.7766 25.4293 12.7426 25.1664 12.6528C24.4534 12.4084 24.1804 11.8501 23.4781 11.5579C23.2518 11.4623 23.0451 11.4033 22.8443 11.3592V8.06969C23.4425 8.28272 23.9758 8.48034 24.7435 8.55419C25.1637 8.59616 25.5032 8.75606 25.8432 8.75606C26.0344 8.75606 26.2262 8.70506 26.4318 8.55419C27.0688 8.07925 27.616 7.21438 27.2776 6.37181C27.0576 5.81666 26.528 6.02544 26.2177 5.55103C25.8852 5.02828 26.0429 4.55069 25.8007 3.91584C25.9516 3.45047 26.2087 3.12322 26.3511 2.75506L31.5541 1.11244ZM24.8078 4.29462C24.8667 4.45028 24.8853 4.60647 24.9082 4.80409C24.9486 5.14941 25.0043 5.62328 25.3204 6.12106C25.6408 6.61034 26.0621 6.79309 26.3149 6.89031C26.3229 7.17134 26.0493 7.50816 25.8113 7.69091C25.747 7.68188 25.6312 7.65319 25.543 7.63088C25.355 7.58306 25.1212 7.52463 24.8476 7.497C24.2346 7.43803 23.8064 7.28556 23.265 7.09166C23.1343 7.04491 22.9888 6.99497 22.8432 6.94556V3.86272L24.948 3.19812C24.8928 3.31978 24.8359 3.44356 24.7892 3.58806C24.7148 3.81862 24.7212 4.06831 24.8078 4.29462ZM21.7812 11.2699C21.4928 11.2758 21.1963 11.2912 20.8627 11.2912C20.7543 11.2912 20.6428 11.2891 20.5259 11.2843C20.4632 11.2816 20.4021 11.2806 20.3416 11.2806C19.7535 11.2806 19.3035 11.3937 18.8004 11.3937C18.5523 11.3937 18.292 11.3661 17.9945 11.2843C17.3092 11.0941 16.7402 11.1844 16.3057 10.4704C15.8015 9.62306 15.827 8.60147 16.3057 7.73341C16.8072 6.83559 17.5631 7.03959 18.4174 6.91581C18.5746 6.89456 18.7228 6.88447 18.8652 6.88447C19.9261 6.88447 20.6258 7.43006 21.7807 7.73022L21.7812 11.2699ZM16.7041 23.4903C16.4225 24.1756 15.9024 24.3185 15.3197 24.3185C15.2198 24.3185 15.1183 24.3143 15.0158 24.3079C14.39 24.2712 14.1084 23.826 13.5389 23.4903C12.9965 23.1705 12.622 22.7327 12.2193 22.3879V15.4923C12.6161 16.0283 12.7718 16.5745 13.3248 16.9325C13.5394 17.0717 13.744 17.1206 13.9437 17.1206C14.4224 17.1206 14.8755 16.8396 15.3813 16.8396C15.5348 16.8396 15.6937 16.8656 15.8589 16.9331C16.7073 17.2869 17.4287 17.5058 17.7554 18.5789C17.9695 19.2695 17.9754 19.7986 17.7554 20.4845C17.5387 21.1777 16.9038 21.1411 16.7041 21.8492C16.5261 22.4538 16.9325 22.9208 16.7041 23.4903ZM1.0625 10.1766C1.52734 10.1729 1.97731 10.1416 2.57072 10.1113C3.31181 10.0704 3.84306 9.67778 4.45081 9.67778C4.65481 9.67778 4.86731 9.72187 5.09947 9.83822C5.80975 10.1846 5.94203 10.9395 6.579 11.4729C7.54056 12.2793 8.30397 12.1593 9.32184 12.8419C10.0805 13.3514 10.6064 13.7758 11.1562 14.322V21.871C11.1058 21.8641 11.0606 21.8503 11.0075 21.8482C10.8099 21.8423 10.6303 21.819 10.463 21.819C10.2053 21.819 9.97369 21.8732 9.74206 22.125C9.34203 22.5558 9.68628 23.2863 9.32238 23.7602C9.05781 24.1118 8.76084 24.2213 8.43731 24.2213C8.12281 24.2213 7.78334 24.1188 7.42263 24.0338C6.698 23.8685 6.45841 23.1173 5.73697 22.942C5.46656 22.8772 5.25034 22.8252 5.03094 22.8252C4.85616 22.8252 4.67978 22.8581 4.471 22.942C3.57425 23.307 3.42497 24.3174 2.99094 25.4017C2.63606 26.2995 2.98828 27.2552 2.35981 27.854C2.05434 28.1456 1.76163 28.2354 1.445 28.2354C1.32228 28.2354 1.19478 28.2216 1.06303 28.2014L1.0625 10.1766ZM1.75791 4.84712L11.1562 1.38444V12.8828C10.7833 12.5704 10.3891 12.2788 9.91419 11.96C9.33938 11.5743 8.84159 11.399 8.40278 11.2439C7.95866 11.0877 7.63831 10.9746 7.26166 10.6585C7.10228 10.5251 6.97691 10.336 6.83081 10.1161C6.56147 9.71019 6.22625 9.20497 5.56484 8.8825C5.21369 8.70666 4.83544 8.61475 4.45028 8.61475C3.97109 8.61475 3.57213 8.75128 3.22097 8.87188C2.96172 8.96059 2.73753 9.03763 2.51175 9.04984L2.08356 9.07375C1.69362 9.095 1.38019 9.112 1.0625 9.11413V5.84375C1.0625 5.40069 1.34141 5.00012 1.75791 4.84712ZM2.44534 32.8881C2.34122 32.921 2.23338 32.9375 2.125 32.9375C1.89762 32.9375 1.68034 32.8663 1.49706 32.7319C1.22506 32.5327 1.0625 32.2123 1.0625 31.875V29.2698C1.18734 29.2846 1.31325 29.299 1.44447 29.299C2.07719 29.299 2.61694 29.078 3.09294 28.6238C3.76019 27.9889 3.81384 27.1803 3.85422 26.5907C3.87388 26.2926 3.893 26.0116 3.97906 25.7938C4.07469 25.5553 4.15863 25.3162 4.23884 25.0856C4.49491 24.3552 4.63197 24.0253 4.87103 23.9275C4.96559 23.8892 5.00756 23.8892 5.03041 23.8892C5.12603 23.8892 5.29391 23.9296 5.48781 23.9764C5.56591 23.9955 5.69819 24.1219 5.83791 24.2558C6.13222 24.5368 6.53491 24.9225 7.18569 25.0708L7.37853 25.1175C7.69569 25.1956 8.05481 25.2843 8.43625 25.2843C9.13484 25.2843 9.73462 24.9783 10.1708 24.3993C10.5501 23.9047 10.5671 23.35 10.5793 22.9829C10.5804 22.9543 10.5814 22.9208 10.5825 22.8868C10.6123 22.8884 10.642 22.891 10.6728 22.8932C10.77 22.9006 10.8704 22.907 10.9756 22.9102C11.0383 22.9128 11.0973 22.9245 11.1562 22.9463V30.1368L2.44534 32.8881ZM12.5391 29.9025L12.2188 29.8015V23.8266C12.4429 24.0247 12.6937 24.2255 12.9997 24.4062C13.1272 24.4816 13.2488 24.5762 13.3769 24.6771C13.7254 24.9507 14.203 25.3247 14.9536 25.3688C15.0753 25.3767 15.1985 25.381 15.3197 25.381C16.4847 25.381 17.281 24.8811 17.6869 23.8946C17.9249 23.3012 17.8266 22.7912 17.7613 22.4538C17.7374 22.3316 17.7108 22.1924 17.7241 22.1478L17.7331 22.1202C17.7491 22.0989 17.8309 22.0352 17.8898 21.9879C18.1427 21.7892 18.5651 21.4561 18.7701 20.8011C19.0496 19.9272 19.0506 19.1664 18.7707 18.2633C18.3228 16.7944 17.2858 16.3694 16.4523 16.0278L16.2679 15.9518C15.9805 15.8344 15.6846 15.7765 15.3813 15.7765C14.9706 15.7765 14.62 15.8807 14.3395 15.9646C14.1849 16.0108 14.025 16.0581 13.9437 16.0581C13.9331 16.0576 13.9235 16.0544 13.9023 16.0411C13.7493 15.9417 13.6494 15.7797 13.472 15.478C13.3237 15.2251 13.1389 14.9117 12.8632 14.5977C12.6326 14.3358 12.4222 14.1052 12.2188 13.8917V1.0625C12.3335 1.0625 12.4461 1.08056 12.5545 1.11722L21.4625 4.08637L21.7812 4.19263V6.61778C21.5135 6.53278 21.2612 6.43875 21.0046 6.33622C20.3761 6.08334 19.7258 5.82197 18.8658 5.82197C18.6724 5.82197 18.4732 5.83525 18.2739 5.86287C18.1183 5.88519 17.9621 5.89528 17.7969 5.90484C17.102 5.94681 16.0522 6.01056 15.3792 7.21491C14.7018 8.44369 14.7082 9.86159 15.3935 11.0139C15.9757 11.9717 16.7907 12.1242 17.3304 12.2257C17.4648 12.2506 17.5918 12.2745 17.7113 12.3075C18.0731 12.4073 18.4296 12.4557 18.8015 12.4557C19.1038 12.4557 19.372 12.4249 19.6313 12.3957C19.8709 12.3686 20.0972 12.3425 20.3426 12.3425C20.3883 12.3425 20.4356 12.3436 20.4834 12.3452C20.6157 12.351 20.7416 12.3532 20.8638 12.3532C21.0848 12.3532 21.2909 12.3457 21.4891 12.3393C21.5895 12.3356 21.6851 12.334 21.7823 12.3319V32.8206L12.5391 29.9025ZM32.2108 29.6953L22.8438 32.8174V12.4573C22.916 12.4807 22.9877 12.5046 23.0658 12.537C23.2539 12.6151 23.3994 12.7378 23.6008 12.9078C23.8951 13.1559 24.2611 13.4651 24.8216 13.6568C25.1812 13.779 25.5313 13.8385 25.8953 13.8385C26.4026 13.8385 26.8409 13.7206 27.2276 13.6165C27.5448 13.5309 27.8439 13.4507 28.1706 13.4358C28.56 13.422 28.8963 13.3285 29.1667 13.2536C29.299 13.2175 29.4477 13.1761 29.5258 13.1697C29.5672 13.2451 29.6055 13.4842 29.631 13.6441C29.7048 14.1004 29.8053 14.7263 30.2722 15.2602C30.9193 16.0129 31.5446 16.2642 32.3404 16.4231L32.3956 16.4342C32.5715 16.4672 32.7526 16.4969 32.938 16.5192V28.6875C32.9375 29.1454 32.6453 29.5508 32.2108 29.6953Z" fill="#606060"/>
<path d="M29.3812 20.8899C29.021 20.7794 28.681 20.6753 28.3134 20.6753C27.967 20.6753 27.6541 20.7693 27.355 20.9638C27.0193 21.1853 26.9226 21.4589 26.9003 21.6485C26.8413 22.1612 27.2212 22.5639 27.6233 22.99C27.8921 23.2747 28.298 23.705 28.2194 23.9095C28.1684 24.0455 28.0143 24.1199 27.6993 24.2458C27.3078 24.4031 26.7149 24.6395 26.5869 25.346C26.5146 25.7381 26.6039 26.0983 26.8445 26.3873C27.1829 26.7926 27.796 27.0158 28.5727 27.0158C29.3642 27.0158 30.1425 26.7873 30.6594 26.4016C31.5376 25.728 31.8744 24.7441 31.6603 23.4782C31.4467 22.1867 30.67 21.2953 29.3812 20.8899ZM30.0182 25.5548C29.6941 25.7971 29.1262 25.9538 28.5727 25.9538C28.0844 25.9538 27.7636 25.8305 27.6605 25.7073C27.6424 25.6855 27.6111 25.6483 27.6313 25.5373C27.6509 25.4316 27.7328 25.3774 28.0935 25.2334C28.4733 25.0815 28.9934 24.8732 29.2128 24.2867C29.5279 23.4617 28.8734 22.7684 28.3952 22.2616C28.2688 22.1277 28.0924 21.9407 28.0048 21.8138C28.2837 21.6666 28.6019 21.7628 29.0959 21.9147C29.9683 22.1894 30.4639 22.7573 30.6121 23.654C30.7619 24.5385 30.5771 25.1261 30.0182 25.5548Z" fill="#606060"/>
</g>
<defs>
<clipPath id="clip0_25_343">
<rect width="34" height="34" fill="white"/>
</clipPath>
</defs>
</svg>
