<svg width="34" height="34" viewBox="0 0 34 34" fill="none" xmlns="http://www.w3.org/2000/svg">
<path d="M14.3736 4.60142C14.7947 3.56448 15.812 2.83325 17 2.83325C18.188 2.83325 19.2053 3.56448 19.6264 4.60142C23.8286 5.75261 26.9167 9.59895 26.9167 14.1666V20.821L29.5121 24.7141C29.8018 25.1489 29.8289 25.7077 29.5824 26.1684C29.3359 26.629 28.8558 26.9166 28.3333 26.9166H21.9082C21.5644 29.3194 19.4979 31.1666 17 31.1666C14.5021 31.1666 12.4356 29.3194 12.0919 26.9166H5.66667C5.14421 26.9166 4.66416 26.629 4.41763 26.1684C4.1711 25.7077 4.19812 25.1489 4.48793 24.7141L7.08333 20.821V14.1666C7.08333 9.59895 10.1714 5.75261 14.3736 4.60142ZM14.996 26.9166C15.2877 27.7419 16.0748 28.3333 17 28.3333C17.9252 28.3333 18.7123 27.7419 19.004 26.9166H14.996ZM17 7.08325C13.088 7.08325 9.91667 10.2546 9.91667 14.1666V21.2499C9.91667 21.5296 9.83387 21.803 9.67874 22.0357L8.31374 24.0833H25.6863L24.3213 22.0357C24.1661 21.803 24.0833 21.5296 24.0833 21.2499V14.1666C24.0833 10.2546 20.912 7.08325 17 7.08325Z" fill="#000"/>
</svg>
