<svg width="34" height="34" viewBox="0 0 34 34" fill="none" xmlns="http://www.w3.org/2000/svg">
<path d="M29.75 12.0417V8.50008C29.75 6.93527 28.4815 5.66675 26.9167 5.66675H7.08333C5.51853 5.66675 4.25 6.93527 4.25 8.50008V15.5834C4.25 17.1483 5.51853 18.4167 7.08333 18.4167H15.4062M26.9167 19.8334V17.0001C26.9167 15.4352 25.6482 14.1667 24.0833 14.1667C22.5185 14.1667 21.25 15.4352 21.25 17.0001V19.8334M19.8333 28.3334H28.3333C29.1158 28.3334 29.75 27.6992 29.75 26.9167V21.2501C29.75 20.4677 29.1158 19.8334 28.3333 19.8334H19.8333C19.0509 19.8334 18.4167 20.4677 18.4167 21.2501V26.9167C18.4167 27.6992 19.0509 28.3334 19.8333 28.3334Z" stroke="#606060" stroke-width="2" stroke-linecap="round" stroke-linejoin="round"/>
<path d="M10.625 14.1667C11.7986 14.1667 12.75 13.2154 12.75 12.0417C12.75 10.8681 11.7986 9.91675 10.625 9.91675C9.45139 9.91675 8.5 10.8681 8.5 12.0417C8.5 13.2154 9.45139 14.1667 10.625 14.1667Z" fill="#606060"/>
<path d="M17 14.1667C18.1736 14.1667 19.125 13.2154 19.125 12.0417C19.125 10.8681 18.1736 9.91675 17 9.91675C15.8264 9.91675 14.875 10.8681 14.875 12.0417C14.875 13.2154 15.8264 14.1667 17 14.1667Z" fill="#606060"/>
</svg>
