<svg width="34" height="34" viewBox="0 0 34 34" fill="none" xmlns="http://www.w3.org/2000/svg">
<path d="M18.4163 7.08341C18.4163 6.30102 17.7821 5.66675 16.9997 5.66675C16.2172 5.66675 15.583 6.30102 15.583 7.08341V8.50008C15.583 9.28248 16.2172 9.91675 16.9997 9.91675C17.7821 9.91675 18.4163 9.28248 18.4163 8.50008V7.08341Z" fill="#606060"/>
<path d="M12.7899 26.9166C12.7624 26.9174 12.7348 26.9174 12.7073 26.9166H4.24967C3.46728 26.9166 2.83301 26.2823 2.83301 25.4999C2.83301 24.7175 3.46728 24.0833 4.24967 24.0833H9.63716C8.91415 22.8333 8.49967 21.3817 8.49967 19.8333C8.49967 15.1388 12.3053 11.3333 16.9997 11.3333C21.6941 11.3333 25.4997 15.1388 25.4997 19.8333C25.4997 21.3817 25.0852 22.8333 24.3622 24.0833H29.7497C30.5321 24.0833 31.1663 24.7175 31.1663 25.4999C31.1663 26.2823 30.5321 26.9166 29.7497 26.9166H21.292C21.2645 26.9174 21.2369 26.9174 21.2094 26.9166H12.7899ZM16.9997 14.1666C13.8701 14.1666 11.333 16.7037 11.333 19.8333C11.333 21.5248 12.0729 23.0433 13.2513 24.0833H20.748C21.9264 23.0433 22.6663 21.5248 22.6663 19.8333C22.6663 16.7037 20.1292 14.1666 16.9997 14.1666Z" fill="#606060"/>
<path d="M27.0177 11.8195L26.016 12.8213C25.4628 13.3745 24.5658 13.3745 24.0126 12.8213C23.4594 12.268 23.4594 11.371 24.0126 10.8178L25.0143 9.81605C25.5675 9.26281 26.4645 9.26281 27.0177 9.81605C27.5709 10.3693 27.5709 11.2663 27.0177 11.8195Z" fill="#606060"/>
<path d="M5.66634 21.2501C6.44874 21.2501 7.08301 20.6158 7.08301 19.8334C7.08301 19.051 6.44874 18.4167 5.66634 18.4167H4.24967C3.46728 18.4167 2.83301 19.051 2.83301 19.8334C2.83301 20.6158 3.46728 21.2501 4.24967 21.2501H5.66634Z" fill="#606060"/>
<path d="M31.167 19.8334C31.167 20.6158 30.5328 21.2501 29.7503 21.2501H28.3337C27.5512 21.2501 26.917 20.6158 26.917 19.8334C26.917 19.051 27.5512 18.4167 28.3337 18.4167H29.7503C30.5328 18.4167 31.167 19.051 31.167 19.8334Z" fill="#606060"/>
<path d="M7.98405 12.8213C8.5373 13.3745 9.43427 13.3745 9.98752 12.8213C10.5408 12.268 10.5408 11.371 9.98752 10.8178L8.98579 9.81606C8.43255 9.26281 7.53556 9.26281 6.98232 9.81606C6.42907 10.3693 6.42907 11.2663 6.98232 11.8195L7.98405 12.8213Z" fill="#606060"/>
</svg>
