<svg width="34" height="34" viewBox="0 0 34 34" fill="none" xmlns="http://www.w3.org/2000/svg">
<path d="M28.844 21.1278C29.6966 20.5992 30.5785 20.052 30.8866 19.1064C31.1815 18.2006 30.8016 17.2603 30.4324 16.3519C30.188 15.7463 29.9357 15.1194 29.9357 14.5961C29.9357 14.0728 30.188 13.4459 30.4324 12.8403C30.799 11.9319 31.1788 10.9916 30.8866 10.0831C30.5785 9.1375 29.6966 8.59031 28.844 8.06172C28.2835 7.71375 27.7523 7.38438 27.4654 6.99125C27.1732 6.5875 27.0218 5.97656 26.8598 5.33109C26.6207 4.36422 26.371 3.36281 25.5768 2.78641C24.7932 2.21531 23.7705 2.28703 22.7851 2.35609C22.113 2.40391 21.4808 2.44641 20.9974 2.28969C20.5458 2.14359 20.0783 1.74781 19.5816 1.32812C18.8485 0.706563 18.0118 0 16.9998 0C15.9877 0 15.151 0.706563 14.4152 1.32812C13.9185 1.74781 13.451 2.14359 12.9994 2.28969C12.516 2.44641 11.8838 2.40391 11.2118 2.35609C10.2237 2.28703 9.201 2.21531 8.42006 2.78641C7.62584 3.36281 7.37881 4.36422 7.1371 5.33109C6.97772 5.97922 6.82631 6.59016 6.53147 6.99125C6.2446 7.38438 5.71334 7.71375 5.15288 8.06172C4.30022 8.59031 3.41834 9.1375 3.11022 10.0831C2.81538 10.9889 3.19522 11.9292 3.56444 12.8377C3.80881 13.4433 4.06116 14.0675 4.06116 14.5934C4.06116 15.1194 3.80881 15.7436 3.56444 16.3492C3.19788 17.2577 2.81803 18.198 3.11022 19.1038C3.41834 20.0494 4.30022 20.5966 5.15288 21.1252C5.71334 21.4731 6.24459 21.8025 6.52616 22.1903C6.54209 22.2116 6.55538 22.2355 6.56866 22.2567L3.47147 30.2042C3.41038 30.3609 3.42631 30.5389 3.51663 30.6797C3.60694 30.8231 3.75834 30.9134 3.92569 30.9267L7.98444 31.2295L11.1773 33.7503C11.2729 33.8247 11.3871 33.8645 11.5066 33.8645C11.5544 33.8645 11.5996 33.8592 11.6448 33.8459C11.8068 33.8008 11.9396 33.6839 12.0007 33.5272L14.2585 27.7339C14.309 27.7764 14.3594 27.8189 14.4126 27.8614C15.1483 28.483 15.9824 29.1895 16.9971 29.1895C18.0118 29.1895 18.8458 28.483 19.5816 27.8614C19.6348 27.8162 19.6826 27.7764 19.7357 27.7339L21.9935 33.5272C22.0546 33.6839 22.1874 33.8034 22.3494 33.8459C22.3946 33.8592 22.4424 33.8645 22.4876 33.8645C22.6044 33.8645 22.7213 33.8247 22.8169 33.7503L26.0098 31.2295L30.0685 30.9267C30.2358 30.9134 30.3873 30.8231 30.4776 30.6797C30.5679 30.5362 30.5838 30.3609 30.5227 30.2042L27.4282 22.2594C27.4415 22.2381 27.4521 22.2169 27.4654 22.1983C27.7523 21.8052 28.2835 21.4758 28.844 21.1278ZM11.2755 32.4727L8.51834 30.2945C8.436 30.2281 8.33506 30.1883 8.22881 30.183L4.72522 29.92L7.1185 23.7787C7.12647 23.808 7.13178 23.8345 7.13975 23.8611C7.37881 24.828 7.6285 25.8267 8.42006 26.4031C9.20366 26.9742 10.2237 26.9025 11.2118 26.8334C11.8838 26.7856 12.516 26.7431 12.9994 26.8998C13.1163 26.937 13.2412 26.9981 13.3766 27.0778L11.2755 32.4727ZM16.9998 28.1323C16.3755 28.1323 15.7566 27.6091 15.1005 27.0539C14.8562 26.8467 14.6012 26.6316 14.3408 26.4403C14.3329 26.435 14.3249 26.4297 14.3169 26.4244C13.953 26.1641 13.6396 25.9941 13.3288 25.8905C12.9463 25.7656 12.5373 25.7284 12.1229 25.7284C11.7962 25.7284 11.4641 25.7523 11.1401 25.7736C10.306 25.832 9.5171 25.8878 9.04694 25.5452C8.56881 25.1972 8.37756 24.4242 8.17303 23.6087C8.03756 23.0589 7.89413 22.4905 7.64975 22.0044C7.64975 22.0017 7.6471 21.9991 7.64444 21.9964C7.64178 21.9911 7.63913 21.9831 7.63647 21.9778C7.57006 21.845 7.49303 21.7148 7.39475 21.5767C6.98569 21.0136 6.34022 20.6152 5.71866 20.2273C4.99616 19.7784 4.3135 19.3561 4.12756 18.7823C3.95225 18.2458 4.24709 17.5206 4.55522 16.753C4.83678 16.0544 5.13163 15.3292 5.13163 14.5988C5.13163 13.8683 4.83944 13.1431 4.55522 12.4445C4.24444 11.6769 3.95225 10.9517 4.12756 10.4152C4.31616 9.83875 4.99616 9.41641 5.72131 8.9675C6.34553 8.57969 6.98835 8.18125 7.39741 7.61812C7.81178 7.04703 7.99506 6.30594 8.17303 5.58875C8.37491 4.77063 8.56881 3.995 9.04959 3.64703C9.51975 3.30437 10.3087 3.36016 11.1427 3.41859C11.8865 3.47172 12.6541 3.52484 13.3341 3.30172C13.9823 3.09188 14.5533 2.60844 15.1085 2.14094C15.7566 1.58578 16.3755 1.0625 16.9998 1.0625C17.624 1.0625 18.2429 1.58578 18.8963 2.14094C19.4488 2.60844 20.0199 3.09188 20.668 3.30172C21.348 3.52219 22.1157 3.46906 22.8594 3.41859C23.6962 3.36016 24.4824 3.30437 24.9526 3.64703C25.4333 3.995 25.6246 4.77063 25.8265 5.58875C26.0044 6.30594 26.1877 7.04703 26.6021 7.62078C27.0112 8.18391 27.6566 8.58234 28.2782 8.97016C29.0007 9.41906 29.6833 9.84141 29.8693 10.4152C30.0446 10.9517 29.7498 11.6769 29.4416 12.4445C29.1601 13.1431 28.8652 13.8683 28.8652 14.5988C28.8652 15.3292 29.1574 16.0544 29.4416 16.753C29.7524 17.5206 30.0446 18.2431 29.8693 18.7823C29.6807 19.3587 29.0007 19.7811 28.2782 20.23C27.654 20.6178 27.0112 21.0163 26.5968 21.5847C26.5038 21.7175 26.4268 21.845 26.363 21.9752C26.3604 21.9831 26.3577 21.9884 26.3524 21.9964C26.3498 22.0017 26.3471 22.007 26.3444 22.0123C26.1001 22.5011 25.9593 23.0669 25.8212 23.6141C25.6166 24.4322 25.4254 25.2052 24.9473 25.5531C24.4771 25.8958 23.6882 25.84 22.8541 25.7816C22.1104 25.7284 21.3427 25.6753 20.6627 25.8984C20.3546 25.9994 20.0385 26.1694 19.6773 26.4297L19.6746 26.4323C19.6666 26.4377 19.6613 26.443 19.6533 26.4483C19.393 26.6369 19.1407 26.852 18.8937 27.0592C18.2429 27.6064 17.624 28.1323 16.9998 28.1323ZM25.7707 30.183C25.6644 30.1909 25.5635 30.2308 25.4812 30.2945L22.724 32.4727L20.6202 27.0778C20.7557 26.9981 20.8805 26.9397 20.9974 26.9025C21.4808 26.7458 22.113 26.7883 22.7851 26.8361C23.7732 26.9052 24.7958 26.9769 25.5768 26.4058C26.3683 25.8294 26.618 24.8306 26.8571 23.8637C26.8651 23.8345 26.8704 23.808 26.8783 23.7814L29.2716 29.9227L25.7707 30.183Z" fill="#606060"/>
<path d="M27.1812 14.5962C27.1812 8.98355 22.6151 4.41479 16.9998 4.41479C11.3845 4.41479 6.81836 8.98355 6.81836 14.5962C6.81836 20.2115 11.3845 24.7776 16.9998 24.7776C22.6151 24.7776 27.1812 20.2115 27.1812 14.5962ZM16.9998 23.7151C11.9715 23.7151 7.88086 19.6245 7.88086 14.5962C7.88086 9.56792 11.9715 5.47729 16.9998 5.47729C22.028 5.47729 26.1187 9.56792 26.1187 14.5962C26.1187 19.6245 22.028 23.7151 16.9998 23.7151Z" fill="#606060"/>
<path d="M21.9934 11.7671L19.5497 11.4111C19.4487 11.3979 19.3637 11.3341 19.3186 11.2438L18.2269 9.03114C17.9958 8.56099 17.523 8.2688 16.9997 8.2688C16.4764 8.2688 16.0036 8.56099 15.7725 9.03114L14.6808 11.2438C14.6356 11.3341 14.5506 11.3979 14.4497 11.4111L12.0059 11.7671C11.4853 11.8415 11.063 12.2 10.9009 12.6994C10.7389 13.1988 10.8717 13.7354 11.2462 14.1019L13.0153 15.8258C13.087 15.8949 13.1189 15.9985 13.103 16.0968L12.6859 18.5299C12.5983 19.0479 12.8055 19.5605 13.2305 19.8686C13.6555 20.1768 14.208 20.2166 14.6728 19.9722L16.8562 18.8247C16.9466 18.7769 17.0528 18.7769 17.1405 18.8247L19.3266 19.9722C19.5284 20.0785 19.7462 20.1316 19.9641 20.1316C20.2456 20.1316 20.5272 20.044 20.7662 19.8686C21.1912 19.5605 21.3984 19.0479 21.3108 18.5299L20.8937 16.0968C20.8778 15.9958 20.9097 15.8949 20.9814 15.8258L22.7478 14.1019C23.125 13.7354 23.2552 13.1988 23.0931 12.6994C22.9364 12.2 22.5114 11.8441 21.9934 11.7671ZM22.0094 13.3422L20.243 15.0661C19.9189 15.3796 19.7728 15.8338 19.8498 16.2774L20.2669 18.7105C20.2961 18.8805 20.1925 18.9761 20.1447 19.0107C20.0969 19.0452 19.9747 19.1143 19.8233 19.0346L17.6372 17.8871C17.438 17.7835 17.2202 17.7304 16.9997 17.7304C16.7819 17.7304 16.5614 17.7835 16.3622 17.8871L14.1761 19.0346C14.0247 19.1143 13.8998 19.0452 13.8547 19.0107C13.8095 18.9761 13.7033 18.8805 13.7325 18.7105L14.1495 16.2774C14.2266 15.8338 14.0778 15.3796 13.7564 15.0661L11.99 13.3422C11.8678 13.2227 11.8944 13.0819 11.913 13.0288C11.9316 12.973 11.99 12.8455 12.16 12.819L14.6037 12.463C15.05 12.3993 15.4352 12.1177 15.6344 11.714L16.7261 9.5013C16.8031 9.34724 16.9439 9.3313 16.9997 9.3313C17.0555 9.3313 17.1989 9.34724 17.2733 9.5013L18.365 11.714C18.5642 12.1177 18.9494 12.3966 19.3956 12.463L21.8394 12.819C22.0094 12.8429 22.0678 12.973 22.0864 13.0288C22.105 13.0819 22.1342 13.2227 22.0094 13.3422Z" fill="#606060"/>
</svg>
