<svg width="166" height="166" viewBox="0 0 166 166" fill="none" xmlns="http://www.w3.org/2000/svg">
<path d="M123.965 24.4019C126.303 22.0636 129.475 20.75 132.781 20.75C136.088 20.75 139.26 22.0636 141.598 24.4019C143.937 26.7402 145.25 29.9115 145.25 33.2183C145.25 36.5252 143.937 39.6965 141.598 42.0348L85.7604 97.8722L62.25 103.75L68.1276 80.2396L123.965 24.4019Z" stroke="#121212" stroke-width="8" stroke-linecap="round" stroke-linejoin="round"/>
<path d="M110.667 41.5L124.5 55.3333" stroke="#121212" stroke-width="8" stroke-linecap="round" stroke-linejoin="round"/>
<path d="M86.4583 20.75H83C48.6203 20.75 20.75 48.6203 20.75 83C20.75 117.38 48.6203 145.25 83 145.25C117.38 145.25 145.25 117.38 145.25 83V79.5417" stroke="#121212" stroke-width="8" stroke-linecap="round"/>
</svg>
