<svg width="166" height="166" viewBox="0 0 166 166" fill="none" xmlns="http://www.w3.org/2000/svg">
<path d="M141.792 78.1583V48.6934C141.792 20.8192 135.29 13.8333 109.145 13.8333H56.8552C30.7102 13.8333 24.2085 20.8192 24.2085 48.6934V126.575C24.2085 144.973 34.3069 149.331 46.5494 136.189L46.6184 136.12C52.2901 130.103 60.9359 130.587 65.8468 137.158L72.8327 146.495" stroke="#121212" stroke-width="8" stroke-linecap="round" stroke-linejoin="round"/>
<path d="M55.3335 48.4167H110.667" stroke="#121212" stroke-width="8" stroke-linecap="round" stroke-linejoin="round"/>
<path d="M62.25 76.0833H103.75" stroke="#121212" stroke-width="8" stroke-linecap="round" stroke-linejoin="round"/>
<path d="M125.959 102.161L101.474 126.646C100.506 127.615 99.6068 129.413 99.3993 130.727L98.0851 140.065C97.601 143.454 99.9526 145.805 103.342 145.321L112.679 144.007C113.993 143.8 115.861 142.9 116.76 141.932L141.245 117.447C145.464 113.228 147.47 108.317 141.245 102.092C135.089 95.9362 130.178 97.9421 125.959 102.161Z" stroke="#121212" stroke-width="8" stroke-miterlimit="10" stroke-linecap="round" stroke-linejoin="round"/>
<path d="M122.419 105.689C124.494 113.159 130.304 118.969 137.774 121.044" stroke="#121212" stroke-width="8" stroke-miterlimit="10" stroke-linecap="round" stroke-linejoin="round"/>
</svg>
